<svg width="54" height="102" viewBox="0 0 54 102" fill="none" xmlns="http://www.w3.org/2000/svg">
<path d="M33.472 24.24H36.472V17.6024L31.4898 21.9882L33.472 24.24ZM13.024 42.24L10.7577 44.2057L12.7378 46.4887L15.0062 44.4918L13.024 42.24ZM0.784 28.128L-1.15116 25.8356L-3.47447 27.7968L-1.4823 30.0937L0.784 28.128ZM34.048 0.0480003V-2.952H32.9511L32.1128 -2.24442L34.048 0.0480003ZM54.208 0.0480003H57.208V-2.952H54.208V0.0480003ZM54.208 102V105H57.208V102H54.208ZM33.472 102H30.472V105H33.472V102ZM31.4898 21.9882L11.0418 39.9882L15.0062 44.4918L35.4542 26.4918L31.4898 21.9882ZM15.2903 40.2743L3.0503 26.1623L-1.4823 30.0937L10.7577 44.2057L15.2903 40.2743ZM2.71916 30.4204L35.9832 2.34042L32.1128 -2.24442L-1.15116 25.8356L2.71916 30.4204ZM34.048 3.048H54.208V-2.952H34.048V3.048ZM51.208 0.0480003V102H57.208V0.0480003H51.208ZM54.208 99H33.472V105H54.208V99ZM36.472 102V24.24H30.472V102H36.472Z" fill="#984373"/>
</svg>
