<svg width="55" height="104" viewBox="0 0 55 104" fill="none" xmlns="http://www.w3.org/2000/svg">
<path d="M0.0560002 81.104L-1.94865 78.8721L-2.944 79.7661V81.104H0.0560002ZM39.656 45.536L41.6607 47.7679L41.6687 47.7606L39.656 45.536ZM45.704 39.344L43.4463 37.3685L45.704 39.344ZM44.984 23.216L43.099 25.5498L43.1267 25.5722L43.1549 25.5939L44.984 23.216ZM26.696 23.936L24.4916 21.9011L24.4701 21.9245L24.449 21.9483L26.696 23.936ZM22.952 33.152L22.7326 36.144L25.7079 36.3622L25.9427 33.3881L22.952 33.152ZM1.352 31.568L-1.64355 31.4046L-1.80391 34.3446L1.13259 34.56L1.352 31.568ZM4.664 17.888L7.34728 19.2296L7.35386 19.2165L7.36031 19.2033L4.664 17.888ZM12.296 8.096L14.1957 10.4179L14.1957 10.4179L12.296 8.096ZM23.384 2.33599L24.234 5.21305L24.2547 5.20695L24.2752 5.20057L23.384 2.33599ZM50.312 2.33599L49.3633 5.18204L49.394 5.19228L49.425 5.20185L50.312 2.33599ZM60.824 8.096L58.8537 10.3582L58.8747 10.3766L58.8962 10.3946L60.824 8.096ZM67.736 17.6L64.975 18.7734L64.9873 18.8024L65.0002 18.8311L67.736 17.6ZM69.32 39.92L72.224 40.6729L72.2273 40.6603L72.2304 40.6476L69.32 39.92ZM66.44 47.12L63.8283 45.6438L63.8172 45.6636L63.8063 45.6834L66.44 47.12ZM62.264 53.024L64.4997 55.0244H64.4997L62.264 53.024ZM56.936 58.352L58.8927 60.626L58.9181 60.6042L58.9429 60.5819L56.936 58.352ZM25.976 84.992L24.0193 82.718L17.89 87.992H25.976V84.992ZM71.192 84.992H74.192V81.992H71.192V84.992ZM71.192 104V107H74.192V104H71.192ZM0.0560002 104H-2.944V107H0.0560002V104ZM2.06065 83.3359L41.6607 47.7679L37.6513 43.3041L-1.94865 78.8721L2.06065 83.3359ZM41.6687 47.7606C43.7811 45.8494 45.8784 43.7005 47.9617 41.3195L43.4463 37.3685C41.4976 39.5955 39.5629 41.5746 37.6433 43.3114L41.6687 47.7606ZM47.9617 41.3195C50.4581 38.4666 51.728 35.0759 51.728 31.28H45.728C45.728 33.6281 44.9819 35.6134 43.4463 37.3685L47.9617 41.3195ZM51.728 31.28C51.728 26.997 50.1264 23.3868 46.8131 20.8381L43.1549 25.5939C44.8336 26.8852 45.728 28.651 45.728 31.28H51.728ZM46.869 20.8822C43.8127 18.4136 40.211 17.192 36.2 17.192V23.192C38.909 23.192 41.1633 23.9864 43.099 25.5498L46.869 20.8822ZM36.2 17.192C31.501 17.192 27.4696 18.675 24.4916 21.9011L28.9004 25.9708C30.5304 24.205 32.835 23.192 36.2 23.192V17.192ZM24.449 21.9483C21.7669 24.9802 20.2952 28.6861 19.9613 32.9159L25.9427 33.3881C26.1848 30.3219 27.2091 27.8838 28.943 25.9237L24.449 21.9483ZM23.1714 30.16L1.57141 28.576L1.13259 34.56L22.7326 36.144L23.1714 30.16ZM4.34755 31.7314C4.61823 26.769 5.6482 22.6278 7.34728 19.2296L1.98072 16.5464C-0.160201 20.8282 -1.33822 25.807 -1.64355 31.4046L4.34755 31.7314ZM7.36031 19.2033C9.10401 15.6287 11.3858 12.7169 14.1957 10.4179L10.3963 5.77412C6.8702 8.6591 4.06399 12.2753 1.96769 16.5727L7.36031 19.2033ZM14.1957 10.4179C17.0314 8.09778 20.364 6.35648 24.234 5.21305L22.534 -0.541058C17.956 0.811512 13.8966 2.91022 10.3963 5.77413L14.1957 10.4179ZM24.2752 5.20057C28.2785 3.95509 32.6312 3.32 37.352 3.32V-2.68C32.0888 -2.68 27.1295 -1.9711 22.4928 -0.528576L24.2752 5.20057ZM37.352 3.32C41.6647 3.32 45.6619 3.94825 49.3633 5.18204L51.2607 -0.510056C46.8981 -1.96425 42.2553 -2.68 37.352 -2.68V3.32ZM49.425 5.20185C53.0859 6.33501 56.2143 8.05942 58.8537 10.3582L62.7943 5.83376C59.4817 2.94857 55.6021 0.832981 51.1991 -0.529861L49.425 5.20185ZM58.8962 10.3946C61.483 12.5642 63.514 15.3358 64.975 18.7734L70.497 16.4266C68.694 12.1841 66.117 8.6198 62.7518 5.79742L58.8962 10.3946ZM65.0002 18.8311C66.5217 22.2121 67.328 26.2417 67.328 30.992H73.328C73.328 25.5663 72.4063 20.6679 70.4718 16.3689L65.0002 18.8311ZM67.328 30.992C67.328 34.0529 67.0126 36.7801 66.4096 39.1924L72.2304 40.6476C72.9714 37.6839 73.328 34.4591 73.328 30.992H67.328ZM66.416 39.1671C65.8059 41.5204 64.9408 43.6755 63.8283 45.6438L69.0517 48.5962C70.4352 46.1485 71.4901 43.5036 72.224 40.6729L66.416 39.1671ZM63.8063 45.6834C62.7668 47.5893 61.5091 49.3686 60.0283 51.0236L64.4997 55.0244C66.2829 53.0314 67.8093 50.8747 69.0737 48.5566L63.8063 45.6834ZM60.0283 51.0236C58.4722 52.7628 56.7732 54.4625 54.9291 56.1221L58.9429 60.5819C60.9389 58.7855 62.7918 56.9332 64.4997 55.0244L60.0283 51.0236ZM54.9793 56.078L24.0193 82.718L27.9327 87.266L58.8927 60.626L54.9793 56.078ZM25.976 87.992H71.192V81.992H25.976V87.992ZM68.192 84.992V104H74.192V84.992H68.192ZM71.192 101H0.0560002V107H71.192V101ZM3.056 104V81.104H-2.944V104H3.056Z" fill="#984373"/>
</svg>
