<svg width="58" height="106" viewBox="0 0 58 106" fill="none" xmlns="http://www.w3.org/2000/svg">
<path d="M27.104 42.224V39.224H24.104V42.224H27.104ZM40.064 41.792L40.509 44.7588H40.509L40.064 41.792ZM45.248 40.208L46.5896 42.8913L46.6208 42.8757L46.6517 42.8594L45.248 40.208ZM49.136 36.752L51.6322 38.4161L51.6566 38.3794L51.68 38.342L49.136 36.752ZM46.832 23.216L44.9024 25.5131L44.9245 25.5317L44.947 25.5498L46.832 23.216ZM25.232 29.696L24.6265 32.6343L27.4446 33.215L28.1424 30.4236L25.232 29.696ZM1.472 24.8L-1.43085 24.0427L-2.22853 27.1005L0.866539 27.7383L1.472 24.8ZM6.656 13.568L9.056 15.368L9.06923 15.3503L9.08221 15.3325L6.656 13.568ZM14.864 5.93599L13.3091 3.3704H13.3091L14.864 5.93599ZM25.376 1.75999L26.0345 4.68682L26.0608 4.68092L26.0869 4.67456L25.376 1.75999ZM50.72 2.048L49.9136 4.93759L49.9529 4.94854L49.9924 4.95843L50.72 2.048ZM61.808 7.23199L59.9964 9.62327L60.0198 9.64096L60.0435 9.6582L61.808 7.23199ZM69.296 16.016L66.6273 17.3864L66.6418 17.4146L66.6569 17.4426L69.296 16.016ZM54.752 51.008L54.1541 48.0682L51.752 48.5567V51.008H54.752ZM54.752 51.44H51.752V54.0883L54.3799 54.4168L54.752 51.44ZM62.816 54.176L61.226 56.72L61.2491 56.7344L61.2725 56.7485L62.816 54.176ZM68.864 59.504L71.2379 57.6697V57.6697L68.864 59.504ZM70.88 88.592L68.2238 87.1975L68.21 87.2238L68.1967 87.2504L70.88 88.592ZM62.96 98.24L64.7824 100.623L64.7924 100.615L62.96 98.24ZM51.296 103.856L50.4962 100.965L50.4882 100.967L50.4801 100.969L51.296 103.856ZM13.568 99.392L11.9382 101.911L11.9466 101.916L11.955 101.921L13.568 99.392ZM0.608 79.376L-0.076026 76.455L-2.98981 77.1374L-2.31465 80.0528L0.608 79.376ZM23.36 74.048L26.2957 73.43L25.6635 70.4274L22.676 71.127L23.36 74.048ZM27.968 82.688L25.9408 84.8995L25.9633 84.92L25.9861 84.9401L27.968 82.688ZM48.848 82.256L46.6436 80.2212L46.6402 80.2248L48.848 82.256ZM50.432 66.128L47.9811 67.858L48.0396 67.941L48.1037 68.0198L50.432 66.128ZM45.824 62.528L46.9382 59.7426H46.9382L45.824 62.528ZM39.344 61.232L39.1048 64.2224L39.1644 64.2272L39.2241 64.2296L39.344 61.232ZM27.104 60.944H24.104V63.944H27.104V60.944ZM27.104 45.224H34.16V39.224H27.104V45.224ZM34.16 45.224C36.3193 45.224 38.4362 45.0697 40.509 44.7588L39.619 38.8252C37.8518 39.0903 36.0327 39.224 34.16 39.224V45.224ZM40.509 44.7588C42.7008 44.43 44.7374 43.8174 46.5896 42.8913L43.9064 37.5247C42.6866 38.1346 41.2672 38.578 39.619 38.8252L40.509 44.7588ZM46.6517 42.8594C48.6938 41.7782 50.3772 40.2985 51.6322 38.4161L46.6399 35.0879C45.9748 36.0854 45.0662 36.9098 43.8443 37.5566L46.6517 42.8594ZM51.68 38.342C53.0202 36.1977 53.576 33.6319 53.576 30.848H47.576C47.576 32.8641 47.1718 34.2343 46.592 35.162L51.68 38.342ZM53.576 30.848C53.576 26.824 51.882 23.4385 48.717 20.8822L44.947 25.5498C46.774 27.0255 47.576 28.728 47.576 30.848H53.576ZM48.7616 20.9189C45.7493 18.3885 42.062 17.192 37.904 17.192V23.192C40.85 23.192 43.1147 24.0114 44.9024 25.5131L48.7616 20.9189ZM37.904 17.192C33.9733 17.192 30.4772 18.2725 27.6414 20.6151L31.4626 25.2409C33.0428 23.9355 35.1147 23.192 37.904 23.192V17.192ZM27.6414 20.6151C24.9572 22.8325 23.1545 25.6367 22.3216 28.9684L28.1424 30.4236C28.6535 28.3793 29.7308 26.6715 31.4626 25.2409L27.6414 20.6151ZM25.8375 26.7577L2.07746 21.8617L0.866539 27.7383L24.6265 32.6343L25.8375 26.7577ZM4.37485 25.5573C5.4467 21.4485 7.02536 18.0755 9.056 15.368L4.256 11.768C1.67864 15.2045 -0.198697 19.3195 -1.43085 24.0427L4.37485 25.5573ZM9.08221 15.3325C11.1655 12.468 13.611 10.2034 16.4189 8.50158L13.3091 3.3704C9.78101 5.50864 6.75448 8.33204 4.22979 11.8035L9.08221 15.3325ZM16.4189 8.50159C19.2927 6.75988 22.491 5.48411 26.0345 4.68682L24.7175 -1.16684C20.581 -0.236122 16.7713 1.2721 13.3091 3.3704L16.4189 8.50159ZM26.0869 4.67456C29.7753 3.77493 33.6637 3.32 37.76 3.32V-2.68C33.2163 -2.68 28.8487 -2.17494 24.6651 -1.15457L26.0869 4.67456ZM37.76 3.32C42.0138 3.32 46.0617 3.86263 49.9136 4.93759L51.5264 -0.841591C47.1223 -2.07063 42.5302 -2.68 37.76 -2.68V3.32ZM49.9924 4.95843C53.8615 5.9257 57.1807 7.49012 59.9964 9.62327L63.6196 4.84072C60.0993 2.17387 56.0265 0.282295 51.4476 -0.862427L49.9924 4.95843ZM60.0435 9.6582C62.824 11.6804 65.0136 14.2439 66.6273 17.3864L71.9647 14.6456C69.9304 10.6841 67.128 7.39157 63.5725 4.80579L60.0435 9.6582ZM66.6569 17.4426C68.2946 20.4724 69.176 24.185 69.176 28.688H75.176C75.176 23.399 74.1374 18.6636 71.9351 14.5894L66.6569 17.4426ZM69.176 28.688C69.176 33.798 67.8447 38.0004 65.2983 41.4504L70.1257 45.0136C73.5313 40.3996 75.176 34.906 75.176 28.688H69.176ZM65.2983 41.4504C62.8305 44.7939 59.2094 47.04 54.1541 48.0682L55.3499 53.9478C61.6226 52.672 66.6415 49.7341 70.1257 45.0136L65.2983 41.4504ZM51.752 51.008V51.44H57.752V51.008H51.752ZM54.3799 54.4168C57.0797 54.7543 59.34 55.5412 61.226 56.72L64.406 51.632C61.684 49.9307 58.5684 48.8937 55.1241 48.4632L54.3799 54.4168ZM61.2725 56.7485C63.368 58.0058 65.0976 59.5362 66.4902 61.3383L71.2379 57.6697C69.3664 55.2478 67.064 53.2262 64.3595 51.6035L61.2725 56.7485ZM66.4902 61.3383C67.8975 63.1596 68.9881 65.2458 69.7519 67.622L75.4641 65.786C74.4999 62.7862 73.0946 60.0724 71.2379 57.6697L66.4902 61.3383ZM69.7519 67.622C70.5155 69.9977 70.904 72.5187 70.904 75.2H76.904C76.904 71.9293 76.4285 68.7863 75.4641 65.786L69.7519 67.622ZM70.904 75.2C70.904 79.8863 69.9779 83.8564 68.2238 87.1975L73.5362 89.9865C75.8141 85.6476 76.904 80.6897 76.904 75.2H70.904ZM68.1967 87.2504C66.4764 90.691 64.1254 93.5521 61.1276 95.8647L64.7924 100.615C68.5146 97.7439 71.4436 94.173 73.5633 89.9336L68.1967 87.2504ZM61.1377 95.8569C58.2184 98.0893 54.6892 99.8048 50.4962 100.965L52.0958 106.747C56.9268 105.411 61.1737 103.383 64.7824 100.623L61.1377 95.8569ZM50.4801 100.969C46.3518 102.136 41.9242 102.728 37.184 102.728V108.728C42.4278 108.728 47.4082 108.072 52.1119 106.743L50.4801 100.969ZM37.184 102.728C28.5417 102.728 21.2497 100.732 15.181 96.8625L11.955 101.921C19.1343 106.5 27.5863 108.728 37.184 108.728V102.728ZM15.1978 96.8733C9.45267 93.1559 5.50512 87.2253 3.53065 78.6992L-2.31465 80.0528C-0.0651205 89.7667 4.62733 97.1801 11.9382 101.911L15.1978 96.8733ZM1.29203 82.297L24.044 76.969L22.676 71.127L-0.076026 76.455L1.29203 82.297ZM20.4244 74.666C21.2959 78.8059 23.0915 82.2876 25.9408 84.8995L29.9952 80.4765C28.2365 78.8644 26.9601 76.5861 26.2957 73.43L20.4244 74.666ZM25.9861 84.9401C29.1326 87.709 33.4597 88.856 38.48 88.856V82.856C34.2843 82.856 31.6035 81.891 29.9499 80.4359L25.9861 84.9401ZM38.48 88.856C43.6456 88.856 48.0666 87.5363 51.0558 84.2872L46.6402 80.2248C45.2134 81.7757 42.7224 82.856 38.48 82.856V88.856ZM51.0524 84.2908C53.9355 81.1674 55.304 77.2402 55.304 72.752H49.304C49.304 75.9438 48.3685 78.3526 46.6436 80.2212L51.0524 84.2908ZM55.304 72.752C55.304 69.4876 54.6024 66.5033 52.7603 64.2362L48.1037 68.0198C48.7576 68.8247 49.304 70.2564 49.304 72.752H55.304ZM52.8829 64.3979C51.3844 62.2751 49.3764 60.7178 46.9382 59.7426L44.7098 65.3134C46.1116 65.8742 47.1756 66.7169 47.9811 67.858L52.8829 64.3979ZM46.9382 59.7426C44.6546 58.8292 42.1509 58.3419 39.4639 58.2344L39.2241 64.2296C41.3371 64.3141 43.1534 64.6908 44.7098 65.3134L46.9382 59.7426ZM39.5832 58.2416C37.1039 58.0432 34.6241 57.944 32.144 57.944V63.944C34.4639 63.944 36.7841 64.0368 39.1048 64.2224L39.5832 58.2416ZM32.144 57.944H27.104V63.944H32.144V57.944ZM30.104 60.944V42.224H24.104V60.944H30.104Z" fill="#984373"/>
</svg>
