<svg width="25" height="25" viewBox="0 0 25 25" fill="none" xmlns="http://www.w3.org/2000/svg">
<path fill-rule="evenodd" clip-rule="evenodd" d="M11.9791 1.04169C11.4038 1.04169 10.9374 1.50806 10.9374 2.08335V3.12502H10.4166C7.54017 3.12502 5.20824 5.45653 5.20824 8.3331V11.4584C5.20824 12.2268 4.96573 13.0961 4.58053 13.9738C4.19955 14.8419 3.70696 15.6556 3.27223 16.2958C2.48104 17.4609 2.97091 19.3022 4.58913 19.5941C5.64725 19.7849 7.14264 20.012 8.90259 20.1591C8.90048 20.2099 8.89942 20.2611 8.89942 20.3125C8.89942 22.3261 10.5317 23.9584 12.5452 23.9584C14.5588 23.9584 16.1911 22.3261 16.1911 20.3125C16.1911 20.2585 16.1899 20.2048 16.1876 20.1514C17.9084 20.0042 19.3707 19.7816 20.4107 19.5941C22.0289 19.3022 22.5188 17.4609 21.7276 16.2958C21.2928 15.6556 20.8003 14.8419 20.4193 13.9738C20.0341 13.0961 19.7916 12.2268 19.7916 11.4584V8.3331C19.7916 5.45653 17.4596 3.12502 14.5832 3.12502H14.0624V2.08335C14.0624 1.50806 13.596 1.04169 13.0208 1.04169H11.9791ZM12.4999 20.3125C13.0325 20.3125 13.5543 20.3019 14.0621 20.2828C14.0704 21.1207 13.3897 21.8297 12.5452 21.8297C11.7027 21.8297 11.0211 21.1228 11.0283 20.2861C11.5075 20.3031 11.999 20.3125 12.4999 20.3125ZM10.4166 5.20835C8.6906 5.20835 7.29157 6.60729 7.29157 8.3331V11.4584C7.29157 12.6286 6.9327 13.7983 6.48823 14.811C6.03954 15.8334 5.47417 16.7616 4.99574 17.4662C4.98511 17.4818 4.98015 17.4968 4.97847 17.5118C4.97697 17.5252 4.97825 17.5378 4.98082 17.5478C6.62951 17.8441 9.37537 18.2292 12.4999 18.2292C15.6244 18.2292 18.3703 17.8441 20.019 17.5478C20.0216 17.5378 20.0228 17.5252 20.0213 17.5118C20.0197 17.4968 20.0147 17.4818 20.0041 17.4662C19.5256 16.7616 18.9603 15.8334 18.5116 14.811C18.0671 13.7983 17.7082 12.6286 17.7082 11.4584V8.3331C17.7082 6.60729 16.3092 5.20835 14.5832 5.20835H10.4166Z" fill="#CD5A7C"/>
</svg>
