<svg width="50" height="50" viewBox="0 0 50 50" fill="none" xmlns="http://www.w3.org/2000/svg">
<path d="M36.7188 10.9375H40.625C42.3438 10.9375 43.75 12.3438 43.75 14.0625V37.5C43.75 39.2188 42.3438 40.625 40.625 40.625H9.375C7.65625 40.625 6.25 39.2188 6.25 37.5V14.0625C6.25 12.3438 7.65625 10.9375 9.375 10.9375H13.2812" fill="#E5E5E5"/>
<path d="M40.625 10.9375H36.7188H13.2812H9.375C7.65625 10.9375 6.25 12.3438 6.25 14.0625V17.9688H43.75V14.0625C43.75 12.3438 42.3438 10.9375 40.625 10.9375Z" fill="#EA685E"/>
<path d="M27.3438 10.9375H32.0312" stroke="#2C3E50" stroke-width="2" stroke-miterlimit="10" stroke-linecap="round" stroke-linejoin="round"/>
<path d="M17.9688 10.9375H22.6562" stroke="#2C3E50" stroke-width="2" stroke-miterlimit="10" stroke-linecap="round" stroke-linejoin="round"/>
<path d="M27.3438 40.625H9.375C7.65625 40.625 6.25 39.2188 6.25 37.5V14.0625C6.25 12.3437 7.65625 10.9375 9.375 10.9375H13.2812" stroke="#2C3E50" stroke-width="2" stroke-miterlimit="10" stroke-linecap="round" stroke-linejoin="round"/>
<path d="M36.7188 10.9375H40.625C42.3438 10.9375 43.75 12.3437 43.75 14.0625V27.3438" stroke="#2C3E50" stroke-width="2" stroke-miterlimit="10" stroke-linecap="round" stroke-linejoin="round"/>
<path d="M22.6562 25.1562C23.0877 25.1562 23.4375 24.8065 23.4375 24.375C23.4375 23.9435 23.0877 23.5938 22.6562 23.5938C22.2248 23.5938 21.875 23.9435 21.875 24.375C21.875 24.8065 22.2248 25.1562 22.6562 25.1562Z" stroke="#2C3E50" stroke-width="2" stroke-miterlimit="10" stroke-linecap="round" stroke-linejoin="round"/>
<path d="M28.125 25.1562C28.5565 25.1562 28.9062 24.8065 28.9062 24.375C28.9062 23.9435 28.5565 23.5938 28.125 23.5938C27.6935 23.5938 27.3438 23.9435 27.3438 24.375C27.3438 24.8065 27.6935 25.1562 28.125 25.1562Z" stroke="#2C3E50" stroke-width="2" stroke-miterlimit="10" stroke-linecap="round" stroke-linejoin="round"/>
<path d="M33.5938 25.1562C34.0252 25.1562 34.375 24.8065 34.375 24.375C34.375 23.9435 34.0252 23.5938 33.5938 23.5938C33.1623 23.5938 32.8125 23.9435 32.8125 24.375C32.8125 24.8065 33.1623 25.1562 33.5938 25.1562Z" stroke="#2C3E50" stroke-width="2" stroke-miterlimit="10" stroke-linecap="round" stroke-linejoin="round"/>
<path d="M39.0625 25.1562C39.494 25.1562 39.8438 24.8065 39.8438 24.375C39.8438 23.9435 39.494 23.5938 39.0625 23.5938C38.631 23.5938 38.2812 23.9435 38.2812 24.375C38.2812 24.8065 38.631 25.1562 39.0625 25.1562Z" stroke="#2C3E50" stroke-width="2" stroke-miterlimit="10" stroke-linecap="round" stroke-linejoin="round"/>
<path d="M22.6562 30.625C23.0877 30.625 23.4375 30.2752 23.4375 29.8438C23.4375 29.4123 23.0877 29.0625 22.6562 29.0625C22.2248 29.0625 21.875 29.4123 21.875 29.8438C21.875 30.2752 22.2248 30.625 22.6562 30.625Z" stroke="#2C3E50" stroke-width="2" stroke-miterlimit="10" stroke-linecap="round" stroke-linejoin="round"/>
<path d="M17.1875 30.625C17.619 30.625 17.9688 30.2752 17.9688 29.8438C17.9688 29.4123 17.619 29.0625 17.1875 29.0625C16.756 29.0625 16.4062 29.4123 16.4062 29.8438C16.4062 30.2752 16.756 30.625 17.1875 30.625Z" stroke="#2C3E50" stroke-width="2" stroke-miterlimit="10" stroke-linecap="round" stroke-linejoin="round"/>
<path d="M11.7188 30.625C12.1502 30.625 12.5 30.2752 12.5 29.8438C12.5 29.4123 12.1502 29.0625 11.7188 29.0625C11.2873 29.0625 10.9375 29.4123 10.9375 29.8438C10.9375 30.2752 11.2873 30.625 11.7188 30.625Z" stroke="#2C3E50" stroke-width="2" stroke-miterlimit="10" stroke-linecap="round" stroke-linejoin="round"/>
<path d="M28.125 30.625C28.5565 30.625 28.9062 30.2752 28.9062 29.8438C28.9062 29.4123 28.5565 29.0625 28.125 29.0625C27.6935 29.0625 27.3438 29.4123 27.3438 29.8438C27.3438 30.2752 27.6935 30.625 28.125 30.625Z" stroke="#2C3E50" stroke-width="2" stroke-miterlimit="10" stroke-linecap="round" stroke-linejoin="round"/>
<path d="M22.6562 36.0938C23.0877 36.0938 23.4375 35.744 23.4375 35.3125C23.4375 34.881 23.0877 34.5312 22.6562 34.5312C22.2248 34.5312 21.875 34.881 21.875 35.3125C21.875 35.744 22.2248 36.0938 22.6562 36.0938Z" stroke="#2C3E50" stroke-width="2" stroke-miterlimit="10" stroke-linecap="round" stroke-linejoin="round"/>
<path d="M17.1875 36.0938C17.619 36.0938 17.9688 35.744 17.9688 35.3125C17.9688 34.881 17.619 34.5312 17.1875 34.5312C16.756 34.5312 16.4062 34.881 16.4062 35.3125C16.4062 35.744 16.756 36.0938 17.1875 36.0938Z" stroke="#2C3E50" stroke-width="2" stroke-miterlimit="10" stroke-linecap="round" stroke-linejoin="round"/>
<path d="M11.7188 36.0938C12.1502 36.0938 12.5 35.744 12.5 35.3125C12.5 34.881 12.1502 34.5312 11.7188 34.5312C11.2873 34.5312 10.9375 34.881 10.9375 35.3125C10.9375 35.744 11.2873 36.0938 11.7188 36.0938Z" stroke="#2C3E50" stroke-width="2" stroke-miterlimit="10" stroke-linecap="round" stroke-linejoin="round"/>
<path d="M25 12.5V7.8125" stroke="#2C3E50" stroke-width="2" stroke-miterlimit="10" stroke-linecap="round" stroke-linejoin="round"/>
<path d="M15.625 12.5V7.8125" stroke="#2C3E50" stroke-width="2" stroke-miterlimit="10" stroke-linecap="round" stroke-linejoin="round"/>
<path d="M34.375 12.5V7.8125" stroke="#2C3E50" stroke-width="2" stroke-miterlimit="10" stroke-linecap="round" stroke-linejoin="round"/>
<path d="M6.25 17.9688H43.75" stroke="#2C3E50" stroke-width="2" stroke-miterlimit="10" stroke-linecap="round" stroke-linejoin="round"/>
<path d="M38.4375 46.1719C43.2268 46.1719 47.1094 42.2893 47.1094 37.5C47.1094 32.7107 43.2268 28.8281 38.4375 28.8281C33.6482 28.8281 29.7656 32.7107 29.7656 37.5C29.7656 42.2893 33.6482 46.1719 38.4375 46.1719Z" fill="#D4C8BC"/>
<path d="M33.9062 30.0781L38.2812 37.3437L46.5625 34.5312C46.5625 34.5312 45.0781 30.625 41.4062 29.375C37.7344 28.0469 34.9219 29.375 33.9062 30.0781Z" fill="#FFD766"/>
<path d="M38.4375 46.1719C43.2268 46.1719 47.1094 42.2893 47.1094 37.5C47.1094 32.7107 43.2268 28.8281 38.4375 28.8281C33.6482 28.8281 29.7656 32.7107 29.7656 37.5C29.7656 42.2893 33.6482 46.1719 38.4375 46.1719Z" stroke="#2C3E50" stroke-width="2" stroke-miterlimit="10" stroke-linecap="round" stroke-linejoin="round"/>
<path d="M38.4375 37.5L42.4219 36.0938" stroke="#2C3E50" stroke-width="2" stroke-miterlimit="10" stroke-linecap="round" stroke-linejoin="round"/>
<path d="M38.4375 37.5L35.2344 32.3438" stroke="#2C3E50" stroke-width="2" stroke-miterlimit="10" stroke-linecap="round" stroke-linejoin="round"/>
</svg>
