<svg width="20" height="24" viewBox="0 0 20 24" fill="none" xmlns="http://www.w3.org/2000/svg">
<path d="M18.3096 18.0835C18.3096 18.4319 18.243 18.7899 18.1013 19.1382C17.9596 19.4866 17.7763 19.8156 17.5346 20.1253C17.1263 20.6478 16.6763 21.0252 16.168 21.2671C15.668 21.509 15.1263 21.6348 14.543 21.6348C13.693 21.6348 12.7846 21.4026 11.8263 20.9284C10.868 20.4543 9.90964 19.8156 8.95964 19.0125C8.0013 18.1996 7.09297 17.2997 6.2263 16.303C5.36797 15.2966 4.59297 14.2419 3.9013 13.1387C3.21797 12.0356 2.66797 10.9325 2.26797 9.83902C1.86797 8.73589 1.66797 7.68114 1.66797 6.67477C1.66797 6.01676 1.76797 5.38778 1.96797 4.80718C2.16797 4.21691 2.48464 3.67502 2.9263 3.19119C3.45964 2.58156 4.04297 2.28159 4.65964 2.28159C4.89297 2.28159 5.1263 2.33965 5.33464 2.45576C5.5513 2.57188 5.74297 2.74606 5.89297 2.99766L7.8263 6.16191C7.9763 6.40382 8.08464 6.62639 8.15964 6.83927C8.23464 7.04248 8.2763 7.24569 8.2763 7.42955C8.2763 7.66178 8.21797 7.89402 8.1013 8.11658C7.99297 8.33915 7.83464 8.57139 7.63464 8.80362L7.0013 9.56808C6.90964 9.67452 6.86797 9.80032 6.86797 9.95514C6.86797 10.0326 6.8763 10.1003 6.89297 10.1777C6.91797 10.2551 6.94297 10.3132 6.95964 10.3712C7.10964 10.6906 7.36797 11.1067 7.73464 11.6098C8.10964 12.113 8.50964 12.6259 8.94297 13.1387C9.39297 13.6516 9.8263 14.1258 10.268 14.5612C10.7013 14.987 11.0596 15.2773 11.343 15.4515C11.3846 15.4708 11.4346 15.4998 11.493 15.5289C11.5596 15.5579 11.6263 15.5676 11.7013 15.5676C11.843 15.5676 11.9513 15.5095 12.043 15.4031L12.6763 14.6773C12.8846 14.4354 13.0846 14.2516 13.2763 14.1354C13.468 14 13.6596 13.9322 13.868 13.9322C14.0263 13.9322 14.193 13.9709 14.3763 14.058C14.5596 14.1451 14.7513 14.2709 14.9596 14.4354L17.718 16.7094C17.9346 16.8836 18.0846 17.0868 18.1763 17.3287C18.2596 17.5706 18.3096 17.8126 18.3096 18.0835Z" stroke="#CD5A7C" stroke-width="1.5" stroke-miterlimit="10"/>
</svg>
