<?xml version="1.0" encoding="utf-8"?>
<!-- Generator: Adobe Illustrator 26.0.1, SVG Export Plug-In . SVG Version: 6.00 Build 0)  -->
<svg version="1.1" id="Layer_1" xmlns="http://www.w3.org/2000/svg" xmlns:xlink="http://www.w3.org/1999/xlink" x="0px" y="0px"
	 viewBox="0 0 1000 996.5" style="enable-background:new 0 0 1000 996.5;" xml:space="preserve">
<style type="text/css">
	.st0{fill:#FFFFFF;}
</style>
<g>
	<path class="st0" d="M975,654.7c-13.8,0-25-10.6-25-23.6c0-322-273.7-584-610.2-584c-13.8,0-25-10.6-25-23.6S326,0,339.8,0
		C429.1,0,515.6,16.7,597,49.6c77.9,31.3,149.1,77.2,209.8,135.2c60.6,58,108.2,125.4,141.4,200.6c34.3,77.4,51.9,161.1,51.8,245.7
		C1000,644.2,988.8,654.7,975,654.7z"/>
	<path class="st0" d="M816,586.1c-13.8,0-25-10.6-25-23.6c0-200.5-170.4-363.7-379.9-363.7c-13.8,0-25-10.6-25-23.6
		s11.2-23.6,25-23.6c57.4-0.1,114.3,10.8,167.5,32.3c50.7,20.4,97.1,50.3,136.6,88.1c39,37,70.2,81.4,92,130.6
		c22.3,50.3,33.8,104.8,33.7,159.9C840.9,575.5,829.8,586.1,816,586.1z"/>
	<path class="st0" d="M664.4,550.3c-13.8,0-25-10.6-25-23.6c0-101.2-85.9-183.5-191.5-183.5c-13.8,0-25-10.6-25-23.6
		s11.2-23.6,25-23.6c64.6,0,125.3,24,170.9,67.6s70.6,101.4,70.6,163.1C689.4,539.7,678.2,550.3,664.4,550.3z"/>
	<path class="st0" d="M0,292.1c0,0,0-159.9,135.6-214.6c2.1-0.9,4.2-1.6,6.3-2.2c7.9-2.2,16.1-3,24.3-2.5c12.8,0.8,39,2.8,50.3,6.9
		c1.3,0.5,2.7,0.9,4,1.3c6.2,2,25.7,11,37.5,48.1l56.7,163c0,0,16.7,44.1-11.8,67.7c-0.9,0.7-1.8,1.5-2.6,2.4l-53,53
		c-6.4,6.3-10.9,14.2-13,22.9c-1.7,7.1-1.9,15.3,2.6,22.5c1.4,2.2,2.6,4.4,3.6,6.7c12,27.2,87.5,181.9,292.8,291.4
		c0,0,22.3,13.2,47.6-10.1l41.4-40.4c1.8-1.7,3.4-3.6,4.9-5.6c6.6-8.8,32.1-37.2,75.2-20.8l172,58.7c1.3,0.4,2.6,0.9,3.9,1.3
		c5.5,1.8,35.8,12.9,41.2,48.5c0.4,2.7,0.8,5.5,1.2,8.2c1.8,11.3,5.8,41.9-0.8,61.4c0,0-41.5,131.6-223.7,136.7
		c0,0-119.2,1-246.7-86.4c-3.5-2.4-7-4.6-10.6-6.8C402,881,178.3,738.8,59.7,501.6C59.7,501.6,0,394.3,0,292.1z"/>
</g>
</svg>
