<svg width="80" height="72" viewBox="0 0 80 72" fill="none" xmlns="http://www.w3.org/2000/svg">
<path fill-rule="evenodd" clip-rule="evenodd" d="M21.0763 0.255042C19.9541 0.370694 18.3688 0.702846 17.0537 1.09789C11.5538 2.74971 6.7997 6.26846 3.70733 10.976C2.93026 12.1589 1.64055 14.7697 1.15504 16.1426C0.562603 17.8177 0 20.4809 0 21.6099C0 22.4953 0.471489 22.9983 1.30163 22.9983C2.26303 22.9983 2.59274 22.5275 2.89882 20.7175C3.68831 16.0497 5.59019 12.3006 8.76866 9.14645C10.662 7.2676 12.3737 6.04927 14.6314 4.97363C17.6599 3.53066 20.4702 2.93452 24.3015 2.92249C26.4416 2.91574 26.6648 2.85831 27.0669 2.21169C27.4256 1.63502 27.3832 1.24464 26.9019 0.692116C26.575 0.316842 26.5685 0.314557 25.5771 0.235369C24.3365 0.13621 22.136 0.145848 21.0763 0.255042ZM21.2265 5.8135C17.5129 6.30164 13.8839 8.07428 11.0765 10.7714C9.38133 12.4001 8.13667 14.0809 7.1975 16.0096C5.94193 18.588 5.24576 22.0613 5.80285 22.9681C6.17792 23.5785 7.26548 23.653 7.81667 23.106C8.11494 22.8101 8.19324 22.5677 8.46138 21.1105C8.81722 19.1767 9.82498 16.6972 10.8886 15.1389C11.8057 13.7953 13.7474 11.9189 15.2691 10.906C17.6744 9.30482 20.9874 8.39272 24.3982 8.39272C25.1859 8.39272 25.8256 8.34622 25.9764 8.27806C26.8034 7.90418 26.8288 6.38063 26.0154 5.94018C25.73 5.78568 25.4091 5.75746 23.7797 5.74385C22.7334 5.73511 21.5845 5.7664 21.2265 5.8135ZM21.7772 11.2824C20.68 11.4106 19.3802 11.825 18.0726 12.4635C14.4201 14.247 11.9982 17.3931 11.1708 21.4292C10.976 22.3793 10.973 22.8084 11.1579 23.2477C11.5709 24.2285 13.1621 24.2236 13.5762 23.2402C13.6572 23.0478 13.8098 22.4786 13.9152 21.9755C14.1461 20.8736 14.3818 20.1811 14.8181 19.3217C15.7896 17.4085 17.6672 15.6454 19.6936 14.7432C20.9028 14.2047 21.6447 14.0504 23.4715 13.9571C25.2986 13.8639 25.4224 13.8261 25.8761 13.223C26.3263 12.6247 26.0069 11.6181 25.2699 11.3125C24.8988 11.1586 22.9779 11.1421 21.7772 11.2824ZM21.9597 16.9367C20.5963 17.2912 19.5274 17.9295 18.5174 18.992C17.4574 20.107 16.7209 21.7473 16.7209 22.9927C16.7209 23.922 17.1703 24.3893 18.0642 24.3893C18.6961 24.3893 19.1348 23.9974 19.3686 23.2241C19.769 21.8994 19.8529 21.7 20.2294 21.1782C20.696 20.5316 21.6199 19.8842 22.3952 19.6606C22.6935 19.5745 23.4171 19.4702 24.0032 19.4287C25.053 19.3542 25.073 19.3482 25.3498 19.0193C26.0473 18.1903 25.7474 17.1965 24.7073 16.89C24.0204 16.6876 22.84 16.7077 21.9597 16.9367ZM60.9695 19.621C59.8393 19.8109 46.5748 23.3413 34.0926 26.7743C26.8477 28.767 24.9743 29.3144 24.5851 29.5532C24.0434 29.8854 23.362 30.7034 23.1099 31.3242C22.9034 31.8325 22.8811 32.0412 22.8923 33.3528L22.9047 34.8148L22.4912 34.7665C21.4045 34.6395 17.8015 34.4244 16.7607 34.4244C15.7524 34.4244 15.547 34.4526 15.2557 34.6314C14.8515 34.8793 14.7726 35.1379 14.85 35.9608C14.9482 37.0047 17.7551 47.7138 18.8353 51.1661C19.6301 53.7062 19.8509 53.696 24.1302 50.9202C26.9457 49.0939 26.8138 49.1644 26.985 49.3947C27.0593 49.4946 27.2417 49.8826 27.3901 50.257C27.8679 51.4615 29.2577 52.684 30.3911 52.8967C31.4079 53.0876 32.3884 52.8801 40.6007 50.7347C46.892 49.0914 48.6429 48.6737 48.7562 48.7893C48.8055 48.8397 49.5299 50.4011 50.366 52.2591C54.2911 60.9825 55.332 63.1543 55.6824 63.3522C55.8724 63.4596 57.2102 63.4964 62.378 63.5361L68.836 63.5858L68.9092 64.6788C68.9978 66.0018 69.2503 66.8757 69.7714 67.6637C71.1196 69.702 74.2374 71.3349 77.6223 71.7756C78.6696 71.9119 79.1369 71.8187 79.6509 71.3709L80 71.0667V59.4638V47.8608L79.6055 47.5071C79.3803 47.3052 79.0528 47.124 78.8427 47.0848C77.6585 46.8643 74.9007 47.6203 73.168 48.6402C71.6308 49.5449 70.154 51.001 69.5258 52.231C69.1934 52.882 68.8861 54.0964 68.8861 54.7589V55.2895L65.8073 55.2773C64.1138 55.2707 62.1052 55.2371 61.3436 55.2028L59.9587 55.1404L58.858 52.5571C57.3622 49.0467 56.5748 47.0958 56.5453 46.8274C56.5242 46.635 56.6132 46.5697 57.1715 46.3679C57.5294 46.2385 59.6696 45.6419 61.9274 45.0421C68.6697 43.2509 68.2393 43.4015 69.0509 42.5499C69.9191 41.6389 70.3693 40.4516 70.2389 39.4165C70.0583 37.9819 66.8829 25.8174 65.9334 22.9229C65.3452 21.1297 64.9913 20.6657 63.7291 20.0329C62.7618 19.5479 62.043 19.4406 60.9695 19.621ZM62.4597 22.405C62.9816 22.7209 63.2308 23.4045 64.4324 27.8171C66.1598 34.1601 67.4844 39.3728 67.4844 39.8272C67.4844 40.452 66.8215 40.8075 64.3091 41.5303C61.9667 42.2042 38.8456 48.3103 35.5945 49.1136C30.951 50.261 30.8832 50.2741 30.5912 50.0843C30.4542 49.9952 30.2785 49.7998 30.2009 49.65C29.8973 49.0647 26.7241 37.6445 25.7883 33.7691C25.547 32.7699 25.6006 32.3489 26.0032 32.0806C26.6502 31.6494 30.1196 30.6269 38.4481 28.4126C42.6185 27.3037 60.9575 22.4464 61.4268 22.3264C62.0103 22.1771 62.0934 22.1834 62.4597 22.405ZM59.2741 25.7941C59.0814 25.8465 57.1214 26.3536 54.9186 26.9211C52.7159 27.4885 49.8098 28.2494 48.4606 28.6119C32.5088 32.8974 29.5076 33.7498 29.1615 34.0927C28.9842 34.2683 28.9363 34.4284 28.9369 34.8422C28.9378 35.6001 29.3809 36.2027 29.9424 36.2096C30.3747 36.215 37.6662 34.3613 47.7597 31.6799C59.6267 28.5274 60.9018 28.1273 61.1764 27.4697C61.4953 26.7056 60.7502 25.6628 59.9049 25.6899C59.7507 25.6948 59.4668 25.7417 59.2741 25.7941ZM58.7843 31.6558C57.5692 31.878 56.2639 32.8389 55.6611 33.9551C55.3628 34.5073 55.3228 34.6761 55.2868 35.5325C55.256 36.2669 55.2881 36.6163 55.4236 37.0229C56.2033 39.3629 58.8333 40.5245 61.0358 39.5018C61.8675 39.1156 62.7869 38.2196 63.1569 37.4345C63.4004 36.9182 63.4284 36.7458 63.4288 35.7657C63.4293 34.7422 63.409 34.6303 63.1096 34.003C62.3331 32.3764 60.4455 31.3521 58.7843 31.6558ZM60.0655 34.5501C60.9236 34.9877 60.9115 36.3881 60.0452 36.9123C59.6104 37.1754 58.9972 37.1611 58.6589 36.8799C57.7741 36.1447 57.77 35.0901 58.6501 34.629C59.0767 34.4054 59.7123 34.3699 60.0655 34.5501ZM20.826 37.3577C24.0208 37.5681 23.8216 37.5098 24.05 38.2993C24.3763 39.4275 25.8178 44.782 25.9704 45.4328L26.117 46.0585L25.5491 46.5047C24.7092 47.1646 21.436 49.328 21.2774 49.328C21.1983 49.328 21.077 49.1081 20.9899 48.8064C20.6168 47.515 18.0225 37.5172 18.0225 37.3704C18.0225 37.1671 17.9366 37.1675 20.826 37.3577ZM53.9883 48.2351C54.1987 48.6449 54.8477 50.098 55.4307 51.4642C57.726 56.8427 58.156 57.7289 58.5511 57.8952C58.7402 57.9748 60.3624 58.0221 63.8576 58.0499L68.8916 58.0901L68.8639 59.4469L68.836 60.8038L68.2603 60.8002C67.9436 60.7983 65.3285 60.7871 62.4487 60.7754L57.2128 60.7541L55.4243 56.8047C52.7384 50.8736 51.5284 48.0324 51.6409 47.9207C51.8123 47.7507 52.9046 47.4455 53.261 47.4681C53.583 47.4884 53.6312 47.5394 53.9883 48.2351ZM77.173 59.4542C77.1583 64.4772 77.1095 68.6235 77.0644 68.6683C76.9331 68.7986 74.9129 68.2354 74.0926 67.8397C73.1747 67.3969 72.0787 66.3691 71.883 65.7675C71.787 65.4729 71.7456 63.941 71.7175 59.6612L71.6801 53.9481L72.0604 53.3806C73.2036 51.6741 75.2533 50.3459 76.7725 50.327L77.1996 50.3216L77.173 59.4542Z" fill="#984373"/>
</svg>
