<svg width="96" height="96" viewBox="0 0 96 96" fill="none" xmlns="http://www.w3.org/2000/svg">
<circle cx="48" cy="48" r="48" fill="#63334E"/>
<path d="M28 58V30.1C28 29.6333 28.2167 29.1667 28.65 28.7C29.0833 28.2333 29.5333 28 30 28H55.95C56.45 28 56.9167 28.225 57.35 28.675C57.7833 29.125 58 29.6 58 30.1V47.9C58 48.3667 57.7833 48.8333 57.35 49.3C56.9167 49.7667 56.45 50 55.95 50H36L28 58ZM38.05 60C37.5833 60 37.125 59.7667 36.675 59.3C36.225 58.8333 36 58.3667 36 57.9V53H61V36H66C66.4667 36 66.9167 36.2333 67.35 36.7C67.7833 37.1667 68 37.65 68 38.15V67.95L60.05 60H38.05ZM55 31H31V50.75L34.75 47H55V31ZM31 31V50.75V31Z" fill="white"/>
</svg>
