<?xml version="1.0" standalone="no"?>
<!DOCTYPE svg PUBLIC "-//W3C//DTD SVG 20010904//EN"
 "http://www.w3.org/TR/2001/REC-SVG-20010904/DTD/svg10.dtd">
<svg version="1.0" xmlns="http://www.w3.org/2000/svg"
 width="24.000000pt" height="24.000000pt" viewBox="0 0 24.000000 24.000000"
 preserveAspectRatio="xMidYMid meet">

<g transform="translate(0.000000,24.000000) scale(0.100000,-0.100000)"
fill="#000000" stroke="none">
<path d="M96 214 c-9 -23 -8 -24 25 -24 24 0 30 3 25 16 -3 9 -6 18 -6 20 0
12 -39 2 -44 -12z"/>
<path d="M24 197 c-3 -8 -4 -52 -2 -98 l3 -84 95 0 95 0 0 95 0 95 -27 3 c-16
2 -28 -1 -28 -7 0 -6 9 -11 20 -11 18 0 20 -7 20 -80 l0 -80 -80 0 -80 0 0 80
c0 73 2 80 20 80 11 0 20 5 20 10 0 15 -50 12 -56 -3z"/>
<path d="M60 160 c0 -12 7 -20 18 -20 14 0 15 2 2 10 -10 6 -11 10 -2 10 6 0
12 5 12 10 0 6 -7 10 -15 10 -8 0 -15 -9 -15 -20z"/>
<path d="M130 160 c-12 -8 -9 -10 13 -10 15 0 27 5 27 10 0 13 -20 13 -40 0z"/>
<path d="M60 115 c0 -8 8 -15 18 -15 14 0 14 2 3 9 -11 7 -10 10 5 14 16 4 16
5 -3 6 -14 1 -23 -5 -23 -14z"/>
<path d="M138 123 c6 -2 18 -2 25 0 6 3 1 5 -13 5 -14 0 -19 -2 -12 -5z"/>
<path d="M138 103 c6 -2 18 -2 25 0 6 3 1 5 -13 5 -14 0 -19 -2 -12 -5z"/>
<path d="M60 70 c0 -11 7 -20 15 -20 18 0 20 20 3 21 -7 0 -4 4 7 9 19 8 19 9
-2 9 -17 1 -23 -5 -23 -19z"/>
<path d="M130 70 c-12 -8 -9 -10 13 -10 15 0 27 5 27 10 0 13 -20 13 -40 0z"/>
</g>
</svg>
