<svg width="50" height="50" viewBox="0 0 50 50" fill="none" xmlns="http://www.w3.org/2000/svg">
<path d="M25 49.9309C38.8071 49.9309 50 38.738 50 24.9309C50 11.1238 38.8071 -0.0690918 25 -0.0690918C11.1929 -0.0690918 0 11.1238 0 24.9309C0 38.738 11.1929 49.9309 25 49.9309Z" fill="#25B7D3"/>
<path d="M39.5455 33.4432C39.5455 34.1736 38.9537 34.7655 38.2232 34.7655H11.7769C11.0464 34.7655 10.4546 34.1736 10.4546 33.4432V14.9309C10.4546 14.2005 11.0464 13.6086 11.7769 13.6086H38.2232C38.9537 13.6086 39.5455 14.2005 39.5455 14.9309V33.4432Z" fill="#3E3E3F"/>
<path d="M28.9673 34.7659H21.0332V38.1546H28.9673V34.7659Z" fill="#E2E4E5"/>
<path d="M31.6114 38.8155C31.6114 39.1805 31.3155 39.4768 30.95 39.4768H19.0495C18.6845 39.4768 18.3882 39.1809 18.3882 38.8155C18.3882 38.45 18.6841 38.1541 19.0495 38.1541H30.9505C31.3155 38.1541 31.6114 38.45 31.6114 38.8155Z" fill="#F0F1F1"/>
<path d="M39.5455 33.4432V29.4764H10.4546V33.4432C10.4546 34.1737 11.0469 34.7655 11.7769 34.7655H38.2232C38.9532 34.7659 39.5455 34.1737 39.5455 33.4432Z" fill="white"/>
<path d="M25.0001 33.9805C24.0201 33.9805 23.2233 33.1836 23.2233 32.2036C23.2233 31.2236 24.0205 30.4268 25.0001 30.4268C25.9796 30.4268 26.7769 31.2236 26.7769 32.2036C26.7769 33.1836 25.9801 33.9805 25.0001 33.9805ZM25.0001 31.3359C24.5214 31.3359 24.1324 31.725 24.1324 32.2036C24.1324 32.6818 24.5214 33.0714 25.0001 33.0714C25.4787 33.0714 25.8678 32.6823 25.8678 32.2036C25.8678 31.7255 25.4787 31.3359 25.0001 31.3359Z" fill="#CFD3D4"/>
<path d="M10.4546 14.9309V29.4764H19.42L35.2878 13.6086H11.7769C11.0469 13.6086 10.4546 14.2009 10.4546 14.9309Z" fill="#5B5C5F"/>
<path d="M25 24.9309C29.0166 24.9309 32.2727 21.6748 32.2727 17.6582C32.2727 13.6416 29.0166 10.3855 25 10.3855C20.9834 10.3855 17.7273 13.6416 17.7273 17.6582C17.7273 21.6748 20.9834 24.9309 25 24.9309Z" fill="white"/>
<path d="M29.5001 18.2518C29.4074 18.0282 29.1887 17.8818 28.9465 17.8818H27.3969V13.6873C27.3969 13.3564 27.1287 13.0882 26.7978 13.0882H23.2028C22.8719 13.0882 22.6037 13.3564 22.6037 13.6873V17.8818H21.0542C20.8119 17.8818 20.5933 18.0277 20.5005 18.2518C20.4078 18.4759 20.4592 18.7332 20.6305 18.905L24.5651 22.5073C24.7992 22.7414 25.1783 22.7414 25.4124 22.5073L29.3705 18.905C29.5415 18.7336 29.5928 18.4759 29.5001 18.2518Z" fill="#17B198"/>
</svg>
