<svg width="24" height="24" viewBox="0 0 24 24" fill="none" xmlns="http://www.w3.org/2000/svg">
<path fill-rule="evenodd" clip-rule="evenodd" d="M10.3782 0.0765209C6.82621 0.532876 3.44342 2.80619 1.61494 5.96579C0.832256 7.31825 0.261271 9.00028 0.0603877 10.5449C-0.0643746 11.5047 0.0130884 13.4978 0.210971 14.4204C0.998236 18.0898 3.3136 21.1123 6.59627 22.7558C7.53523 23.2258 8.70381 23.6395 9.66148 23.8409C10.6334 24.0454 13.3946 24.0549 14.2825 23.857C16.8876 23.2762 19.021 22.0921 20.7398 20.273C22.8496 18.0401 23.9946 15.1513 24 12.0477C24.0035 9.97254 23.6283 8.40971 22.6796 6.54917C20.9038 3.06624 17.6079 0.683307 13.7676 0.105943C12.9152 -0.0222636 11.2587 -0.0365792 10.3782 0.0765209ZM14.1624 1.84262C17.0476 2.49014 19.4901 4.29017 21.0021 6.88325C22.4316 9.33491 22.7425 12.551 21.8175 15.3197C20.82 18.3056 18.4807 20.7148 15.5578 21.7664C13.0905 22.6542 10.6866 22.6315 8.27164 21.6978C6.82566 21.1387 5.84509 20.4912 4.68259 19.3276C3.45763 18.1016 2.63847 16.7784 2.1342 15.2113C1.75629 14.037 1.68601 13.5192 1.68838 11.929C1.69019 10.6775 1.71633 10.3632 1.86873 9.75599C2.25794 8.20581 2.84314 6.96305 3.75564 5.74885C5.36626 3.60572 7.7951 2.1529 10.4798 1.72683C11.1417 1.62172 13.5101 1.69623 14.1624 1.84262ZM11.8725 6.01515C11.1915 6.25827 10.5813 6.94763 10.4183 7.65811C10.3733 7.85386 10.3357 8.41287 10.3346 8.90031L10.3327 9.7866L9.76018 9.80986L9.18769 9.83311L9.16574 10.9206L9.14379 12.0081H9.73823H10.3327V14.9977C10.3327 17.2176 10.3571 18.0118 10.4274 18.0823C10.5272 18.1823 12.571 18.2224 12.8135 18.1292C12.9245 18.0866 12.9385 17.7409 12.9385 15.0473V12.0135L13.7864 11.991L14.6345 11.9686L14.6897 11.581C14.7201 11.3678 14.756 10.8873 14.7695 10.5133L14.7941 9.83311L13.8585 9.81073L12.9229 9.78842L12.9505 9.08301C12.9675 8.645 13.0167 8.33868 13.0802 8.27494C13.1447 8.21016 13.4806 8.15756 13.9883 8.13265L14.7941 8.0931L14.8161 7.0056L14.838 5.9181L13.4737 5.92435C12.723 5.92775 12.0028 5.96864 11.8725 6.01515Z" fill="#F7F4EA"/>
</svg>
