<svg width="48" height="54" viewBox="0 0 48 54" fill="none" xmlns="http://www.w3.org/2000/svg">
<path fill-rule="evenodd" clip-rule="evenodd" d="M22.1205 0.8907C16.2988 1.45233 11.0971 4.10403 7.03627 8.58024C3.48737 12.4921 1.1443 17.4926 0.324281 22.9046C-0.617819 29.1231 0.512802 35.6442 3.45558 40.9649C6.7971 47.0063 12.0423 51.2598 18.2341 52.9495C21.8111 53.9256 25.228 54.0118 28.7442 53.2148C33.4322 52.1519 37.6016 49.6822 40.9711 45.9723C46.9368 39.4038 49.3305 29.8747 47.2786 20.8625C45.2654 12.0206 39.304 4.96456 31.4429 2.1191C28.6197 1.09704 24.9681 0.615949 22.1205 0.8907ZM30.5275 14.3678V17.0636H28.8429C26.2376 17.0636 26.1457 17.1495 26.1457 19.5853V21.1073H28.3876C29.6206 21.1073 30.6289 21.1452 30.6283 21.1916C30.6276 21.238 30.5135 22.6153 30.3747 24.2525C30.2359 25.8897 30.1217 27.267 30.121 27.3134C30.1204 27.3598 29.1799 27.3976 28.0309 27.3976H25.9419V35.2043V43.011H23.0886H20.2353V35.2043V27.3976H18.8086H17.3819V24.2525V21.1073H18.7425H20.103L20.1629 19.0574C20.2297 16.7666 20.3465 16.1053 20.908 14.8378C21.3815 13.7689 22.1329 12.9393 23.1074 12.4093C24.2361 11.7955 24.9022 11.6945 27.9035 11.6825L30.5275 11.6719V14.3678Z" fill="#63334E"/>
</svg>
