<svg width="50" height="50" viewBox="0 0 50 50" fill="none" xmlns="http://www.w3.org/2000/svg">
<g clip-path="url(#clip0_148_105)">
<path d="M21.7031 18.8649L15.8242 2.71329L20.2289 1.11017L30.5125 15.6578L21.7031 18.8649Z" fill="#42A5B2"/>
<path d="M3.75 22.0735L39.0445 9.22736C39.4848 9.06709 39.9556 9.00789 40.4218 9.05414C40.8881 9.10039 41.338 9.2509 41.7383 9.49454L44.7281 11.3156C45.5069 11.0321 46.3664 11.0695 47.1176 11.4197C47.8687 11.7699 48.45 12.4041 48.7336 13.1828C49.0168 13.9616 48.9792 14.821 48.6289 15.572C48.2786 16.323 47.6443 16.9041 46.8656 17.1875L21.9055 26.2735L5.35234 26.4789L3.75 22.0735Z" fill="#62C4C3"/>
<path d="M3.74927 22.0734L1.07739 14.732L4.01333 13.6633L9.62192 19.9359L3.74927 22.0734Z" fill="#42A5B2"/>
<path d="M22.7719 21.8008L28.65 37.9524L33.0547 36.3492L31.5812 18.5945L22.7719 21.8008Z" fill="#42A5B2"/>
<path d="M3.90625 48.4375C4.7692 48.4375 5.46875 47.7379 5.46875 46.875C5.46875 46.0121 4.7692 45.3125 3.90625 45.3125C3.04331 45.3125 2.34375 46.0121 2.34375 46.875C2.34375 47.7379 3.04331 48.4375 3.90625 48.4375Z" fill="#EFBC2E"/>
<path d="M21.875 35.1562C22.7379 35.1562 23.4375 34.4567 23.4375 33.5938C23.4375 32.7308 22.7379 32.0312 21.875 32.0312C21.0121 32.0312 20.3125 32.7308 20.3125 33.5938C20.3125 34.4567 21.0121 35.1562 21.875 35.1562Z" fill="#EFBC2E"/>
<path d="M49.4664 12.9086C49.124 12.0076 48.465 11.2623 47.6126 10.8123C46.7602 10.3623 45.773 10.2385 44.8359 10.4641L42.1461 8.82343C41.6455 8.52026 41.0833 8.33313 40.5009 8.2758C39.9184 8.21848 39.3306 8.29242 38.7805 8.49218L28.943 12.0719L20.8641 0.657807C20.7651 0.518023 20.623 0.414627 20.4595 0.363527C20.296 0.312428 20.1203 0.316457 19.9594 0.374995L15.5609 1.97734C15.4644 2.01225 15.3757 2.06584 15.3 2.13503C15.2242 2.20423 15.1628 2.28768 15.1192 2.38061C15.0757 2.47355 15.0509 2.57416 15.0463 2.67668C15.0416 2.7792 15.0572 2.88163 15.0922 2.97812L19.6297 15.4602L9.84843 19.0187L4.59609 13.143C4.49228 13.0273 4.35631 12.9452 4.20559 12.9072C4.05487 12.8692 3.89624 12.877 3.75 12.9297L0.810152 13.9984C0.713647 14.0333 0.624965 14.0869 0.549175 14.1561C0.473384 14.2253 0.411969 14.3088 0.368439 14.4017C0.324908 14.4946 0.300115 14.5952 0.295476 14.6978C0.290837 14.8003 0.306443 14.9027 0.341403 14.9992L4.61718 26.7437C4.67203 26.8944 4.77193 27.0246 4.90331 27.1166C5.03469 27.2085 5.19119 27.2579 5.35156 27.2578H5.36093L21.9164 27.0547C22.0044 27.0533 22.0915 27.0372 22.1742 27.007L23.6406 26.4719L27.9156 38.2187C27.9505 38.3153 28.0041 38.4041 28.0734 38.48C28.1426 38.5558 28.2262 38.6173 28.3192 38.6608C28.4122 38.7043 28.5129 38.7291 28.6155 38.7337C28.7181 38.7383 28.8206 38.7226 28.9172 38.6875L33.3219 37.0836C33.4829 37.025 33.6203 36.9152 33.7127 36.7709C33.8052 36.6266 33.8477 36.4559 33.8336 36.2851L32.7398 23.1602L47.1305 17.9195C47.6129 17.7438 48.0561 17.4748 48.4345 17.1277C48.8129 16.7806 49.1191 16.3623 49.3357 15.8968C49.5523 15.4312 49.675 14.9275 49.6967 14.4145C49.7185 13.9015 49.6389 13.3892 49.4625 12.907L49.4664 12.9086ZM16.8289 3.17812L19.9336 2.04765L27.4219 12.6258L21.1 14.9258L16.8289 3.17812ZM4.21875 21.0695L2.07812 15.1992L3.78437 14.5789L8.26875 19.5945L4.21875 21.0695ZM29.1172 36.9531L23.7727 22.2656L30.8867 19.6758L32.2273 35.8164L29.1172 36.9531ZM46.6 16.4539L32.6102 21.5484L32.3594 18.5305C32.3495 18.4107 32.3122 18.2948 32.2503 18.1918C32.1883 18.0889 32.1035 18.0016 32.0023 17.9367C31.9011 17.8721 31.7865 17.8315 31.6672 17.818C31.548 17.8045 31.4272 17.8183 31.3141 17.8586L22.5047 21.0617C22.4081 21.0966 22.3193 21.1502 22.2435 21.2195C22.1676 21.2887 22.1062 21.3723 22.0626 21.4653C22.0191 21.5583 21.9943 21.659 21.9897 21.7616C21.9852 21.8642 22.0009 21.9667 22.0359 22.0633L23.1047 24.9992L21.7617 25.4891L5.89453 25.6836L4.75078 22.5375L39.3117 9.95937C39.6423 9.83888 39.9956 9.79403 40.3458 9.8281C40.696 9.86217 41.034 9.9743 41.3352 10.1562L42.0836 10.6133L39.7898 11.4476L40.3234 12.9164L43.7914 11.6547L44.3195 11.9766C44.4188 12.0372 44.5303 12.0749 44.646 12.0869C44.7617 12.099 44.8787 12.085 44.9883 12.0461C45.2775 11.9403 45.5848 11.8924 45.8926 11.9054C46.2003 11.9183 46.5025 11.9917 46.7819 12.1214C47.0612 12.2511 47.3123 12.4346 47.5208 12.6614C47.7293 12.8881 47.891 13.1537 47.9969 13.443C48.1027 13.7322 48.1505 14.0395 48.1376 14.3473C48.1247 14.655 48.0512 14.9572 47.9215 15.2366C47.7918 15.5159 47.6084 15.767 47.3816 15.9755C47.1549 16.184 46.8893 16.3457 46.6 16.4516V16.4539Z" fill="#3A4249"/>
<path d="M36.1178 12.7867L34.6501 13.3205L35.1842 14.7889L36.6519 14.255L36.1178 12.7867Z" fill="#3A4249"/>
<path d="M33.181 13.855L31.7134 14.3889L32.2475 15.8572L33.7151 15.3234L33.181 13.855Z" fill="#3A4249"/>
<path d="M30.2454 14.9247L28.7777 15.4585L29.3118 16.9269L30.7795 16.393L30.2454 14.9247Z" fill="#3A4249"/>
<path d="M27.3087 15.993L25.8411 16.5269L26.3752 17.9952L27.8428 17.4614L27.3087 15.993Z" fill="#3A4249"/>
<path d="M24.3719 17.0622L22.9043 17.596L23.4384 19.0644L24.906 18.5306L24.3719 17.0622Z" fill="#3A4249"/>
<path d="M21.4353 18.1313L19.9677 18.6652L20.5018 20.1335L21.9694 19.5997L21.4353 18.1313Z" fill="#3A4249"/>
<path d="M18.4987 19.1997L17.031 19.7335L17.5651 21.2019L19.0328 20.6681L18.4987 19.1997Z" fill="#3A4249"/>
<path d="M15.5626 20.2677L14.0945 20.8025L14.6292 22.2706L16.0974 21.7359L15.5626 20.2677Z" fill="#3A4249"/>
<path d="M12.6261 21.3372L11.158 21.8719L11.6927 23.3401L13.1609 22.8053L12.6261 21.3372Z" fill="#3A4249"/>
<path d="M14.8438 34.375H19.675C19.8593 34.8963 20.2219 35.3356 20.6988 35.6153C21.1757 35.8951 21.7361 35.9972 22.281 35.9037C22.826 35.8103 23.3203 35.5271 23.6766 35.1044C24.033 34.6817 24.2285 34.1466 24.2285 33.5938C24.2285 33.0409 24.033 32.5058 23.6766 32.0831C23.3203 31.6604 22.826 31.3773 22.281 31.2838C21.7361 31.1903 21.1757 31.2924 20.6988 31.5722C20.2219 31.8519 19.8593 32.2912 19.675 32.8125H14.8438C13.6005 32.8125 12.4083 33.3064 11.5292 34.1854C10.6501 35.0645 10.1562 36.2568 10.1562 37.5C10.1562 38.7432 10.6501 39.9355 11.5292 40.8146C12.4083 41.6936 13.6005 42.1875 14.8438 42.1875H28.125V40.625H14.8438C14.0149 40.625 13.2201 40.2958 12.634 39.7097C12.048 39.1237 11.7188 38.3288 11.7188 37.5C11.7188 36.6712 12.048 35.8763 12.634 35.2903C13.2201 34.7042 14.0149 34.375 14.8438 34.375ZM21.875 32.8125C22.0295 32.8125 22.1806 32.8583 22.309 32.9442C22.4375 33.03 22.5377 33.152 22.5968 33.2948C22.6559 33.4375 22.6714 33.5946 22.6412 33.7462C22.6111 33.8977 22.5367 34.0369 22.4274 34.1462C22.3182 34.2554 22.179 34.3298 22.0274 34.36C21.8759 34.3901 21.7188 34.3747 21.576 34.3155C21.4333 34.2564 21.3113 34.1563 21.2254 34.0278C21.1396 33.8993 21.0938 33.7483 21.0938 33.5938C21.0938 33.3866 21.1761 33.1878 21.3226 33.0413C21.4691 32.8948 21.6678 32.8125 21.875 32.8125Z" fill="#3A4249"/>
<path d="M31.25 40.625H29.6875V42.1875H31.25V40.625Z" fill="#3A4249"/>
<path d="M39.4531 40.625H32.8125V42.1875H39.4531C39.9711 42.1875 40.4679 42.3933 40.8342 42.7596C41.2005 43.1258 41.4062 43.6226 41.4062 44.1406C41.4062 44.6586 41.2005 45.1554 40.8342 45.5217C40.4679 45.888 39.9711 46.0938 39.4531 46.0938H14.8438V47.6562H39.4531C40.3855 47.6562 41.2797 47.2859 41.939 46.6265C42.5984 45.9672 42.9688 45.073 42.9688 44.1406C42.9688 43.2082 42.5984 42.314 41.939 41.6547C41.2797 40.9954 40.3855 40.625 39.4531 40.625Z" fill="#3A4249"/>
<path d="M3.90631 44.5313C3.47622 44.5295 3.05393 44.6461 2.68568 44.8683C2.31744 45.0905 2.01744 45.4098 1.81854 45.7911C1.61964 46.1725 1.52951 46.6012 1.55801 47.0303C1.58651 47.4595 1.73255 47.8725 1.98014 48.2242C2.22773 48.5759 2.56731 48.8527 2.96171 49.0242C3.35611 49.1958 3.79011 49.2555 4.21619 49.1969C4.64226 49.1382 5.04399 48.9635 5.37737 48.6917C5.71076 48.42 5.96294 48.0618 6.10631 47.6563H13.2813V46.0938H6.10631C5.94531 45.6384 5.64753 45.2438 5.25373 44.9642C4.85993 44.6845 4.38932 44.5333 3.90631 44.5313ZM3.90631 47.6563C3.75179 47.6563 3.60075 47.6105 3.47227 47.5246C3.34379 47.4388 3.24366 47.3167 3.18453 47.174C3.1254 47.0312 3.10993 46.8742 3.14007 46.7226C3.17021 46.5711 3.24462 46.4319 3.35388 46.3226C3.46314 46.2133 3.60235 46.1389 3.75389 46.1088C3.90544 46.0786 4.06253 46.0941 4.20528 46.1532C4.34803 46.2124 4.47005 46.3125 4.55589 46.441C4.64174 46.5695 4.68756 46.7205 4.68756 46.875C4.68756 47.0822 4.60525 47.2809 4.45874 47.4274C4.31222 47.574 4.11351 47.6563 3.90631 47.6563Z" fill="#3A4249"/>
</g>
<defs>
<clipPath id="clip0_148_105">
<rect width="50" height="50" fill="white"/>
</clipPath>
</defs>
</svg>
