<svg width="80" height="53" viewBox="0 0 80 53" fill="none" xmlns="http://www.w3.org/2000/svg">
<path fill-rule="evenodd" clip-rule="evenodd" d="M62.3794 1.61177C60.6708 2.51966 59.3516 4.48369 59.5475 5.82828C59.676 6.71012 59.5152 6.95929 58.509 7.43929C57.4011 7.96736 56.9923 7.93947 52.604 7.03305C46.8708 5.84883 43.1394 5.79525 37.4037 6.81543C32.4411 7.698 31.1761 8.07378 29.9695 9.02277C29.1369 9.67782 28.84 9.70021 26.113 9.31452C22.629 8.82204 20.3145 7.6958 20.4719 6.5703C20.6547 5.26241 19.8928 3.92773 18.3072 2.7791C16.5163 1.48186 14.2587 1.28626 12.9659 2.31635C12.5284 2.66534 9.43193 7.31489 6.08514 12.6492C1.07083 20.6411 0 22.5857 0 23.7006C0 25.353 1.01982 26.7439 2.95596 27.7314C4.63596 28.5886 5.34899 28.6275 6.67743 27.9343C7.64881 27.4275 7.69468 27.4558 9.22055 29.4962C10.0756 30.6393 11.1567 32.0837 11.6231 32.7064L12.4716 33.8382L11.1897 35.6407C8.94715 38.7956 9.53945 41.3237 12.9453 43.1303C14.0818 43.7332 14.6598 44.32 14.895 45.1094C15.3791 46.7336 18.0297 48.6385 19.8059 48.6385C20.6628 48.6385 21.2818 48.8363 21.4018 49.149C21.5094 49.4294 22.5112 50.1061 23.6275 50.6525C25.2818 51.4617 25.8473 51.5795 26.6822 51.2888C27.5486 50.9868 27.8576 51.0727 28.6877 51.8455C29.3105 52.4253 30.2554 52.8253 31.2734 52.9398C32.6055 53.0899 33.0627 52.9651 33.9677 52.2037L35.0576 51.2866L40.6848 52.1644C45.9255 52.9813 46.3963 53.0018 47.5383 52.4598C48.2125 52.1398 49.0257 51.4793 49.3446 50.9923C49.7916 50.3101 50.2495 50.1064 51.335 50.1064C53.047 50.1064 54.2694 49.2184 55.538 47.0536C56.2624 45.8176 56.8029 45.3652 57.9765 45.0136C59.186 44.6514 59.7306 44.1769 60.7306 42.6136C61.6466 41.1813 62.2635 40.6077 63.058 40.4488C64.5204 40.1563 65.8323 38.9094 66.96 36.7402C67.6294 35.4529 67.8385 34.6088 67.6873 33.8041C67.4925 32.7641 67.7016 32.4697 70.3435 30.076C72.9901 27.6771 73.3152 27.4892 74.5626 27.6363C76.2327 27.8334 78.7343 26.5358 79.4855 25.0826C80.6136 22.9017 80.3027 22.1644 74.0998 12.3083C70.8605 7.16149 67.7229 2.49654 67.127 1.94131C65.8319 0.735069 64.2374 0.624611 62.3794 1.61177ZM71.4679 13.3747C74.7479 18.5824 77.4312 22.9435 77.4312 23.0661C77.4312 23.1886 77.0697 23.6257 76.6279 24.0371C74.8455 25.698 74.6187 25.4631 68.2884 15.4099C65.0418 10.2536 62.3853 5.79232 62.3853 5.49617C62.3853 4.86057 64.5002 3.48406 65.0939 3.73323C65.3196 3.82828 68.1882 8.16699 71.4679 13.3747ZM16.6774 5.01874C17.2672 5.48259 17.6088 6.05323 17.5138 6.4158C17.3963 6.86498 7.88073 22.2044 5.81908 25.2683C5.33761 25.9835 2.56881 24.6639 2.56881 23.7189C2.56881 23.5046 9.55486 12.2661 14.1673 5.06057C14.8272 4.03011 15.4081 4.02021 16.6774 5.01874ZM52.7677 9.90241C57.4506 10.8613 57.6242 10.8543 60.5861 9.58791C61.0451 9.39158 62.2638 11.0697 66.2132 17.3358L71.2543 25.3343L68.4473 28.0257C66.6517 29.7472 65.4433 30.6415 65.0939 30.5075C64.7938 30.3923 59.4789 27.0198 53.2833 23.0129C47.0873 19.0063 41.6576 15.5365 41.2169 15.3024C39.6235 14.4569 38.2635 14.8657 32.1369 18.0316C27.1494 20.6088 25.9332 21.1042 25.4928 20.7391C25.1967 20.4932 24.9556 20.1057 24.9574 19.8782C24.9633 19.1677 30.8158 11.8019 31.9398 11.0899C32.5299 10.7164 35.1875 10.0184 37.88 9.52993C43.6279 8.48736 46.1695 8.55085 52.7677 9.90241ZM20.596 10.6279C21.4793 11.1164 23.0275 11.6323 24.0367 11.7743C25.0459 11.9164 26.069 12.1373 26.3101 12.2657C26.6018 12.4206 26.0679 13.3986 24.7167 15.1842C23.5993 16.6613 22.5405 18.3721 22.3648 18.9857C21.971 20.3586 22.6686 22.2261 23.8961 23.0859C25.5288 24.2294 26.9527 23.8481 33.3042 20.5659C36.6235 18.851 39.5292 17.5519 39.7611 17.6797C42.3475 19.1009 64.6998 33.8257 64.8448 34.2041C65.0976 34.8628 63.2686 37.6294 62.5805 37.6294C62.2899 37.6294 59.1376 35.8921 55.5754 33.7688C47.3993 28.8954 47.8136 29.1057 46.9372 29.3835C46.3971 29.5552 46.2264 29.8789 46.309 30.5765C46.4044 31.3857 47.3897 32.1185 52.6605 35.3017C56.0917 37.3736 59.0473 39.1248 59.2283 39.1927C59.7255 39.3798 57.5993 42.4 56.9703 42.4C56.6694 42.4 53.807 40.9831 50.6092 39.2514C47.4114 37.5196 44.5182 36.1574 44.1798 36.2239C43.8418 36.2907 43.3916 36.6202 43.1798 36.9563C42.607 37.8664 43.2616 38.4485 47.2815 40.6022C49.2308 41.6466 51.5277 42.9068 52.3853 43.403L53.9453 44.3046L53.3027 45.3952C51.8734 47.8228 51.9391 47.825 46.6092 45.1541C43.9446 43.8191 41.5094 42.7769 41.1971 42.8386C40.8848 42.9002 40.4558 43.2257 40.244 43.5619C39.6631 44.4844 40.4418 45.1817 44.1086 47.0231C45.8855 47.9156 47.3394 48.789 47.3394 48.9644C47.3394 49.1395 47.0925 49.4877 46.7901 49.7384C46.3508 50.1031 45.4158 50.0716 42.1112 49.5798C36.6782 48.7714 36.9204 48.88 37.6018 47.5626C38.6991 45.4407 38.0022 43.1123 35.8983 41.8694C35.1094 41.4033 34.8903 41.0547 35.0572 40.5296C35.4594 39.262 34.5248 37.3475 32.9314 36.1758C32.0976 35.5626 31.2 35.0606 30.9369 35.0606C30.6738 35.0606 30.4587 34.6606 30.4587 34.1714C30.4587 32.3053 27.4081 29.923 25.0187 29.923C24.364 29.923 23.4517 30.3079 22.7923 30.8628L21.6752 31.803L20.0716 30.8628C18.1508 29.7373 16.2239 29.6518 14.9721 30.6363L14.0653 31.3494L11.8033 28.2954C10.5593 26.6154 9.54128 25.1171 9.54128 24.9655C9.54128 24.742 18.7894 9.77507 18.9446 9.74755C18.9695 9.74314 19.7127 10.1391 20.596 10.6279ZM18.6239 33.2217C19.2796 33.6217 19.8165 34.1391 19.8165 34.3718C19.8165 35.247 15.6429 40.9321 15 40.9321C14.644 40.9321 13.8895 40.5307 13.3233 40.04C12.3523 39.1985 12.3251 39.0954 12.844 38.2341C13.9457 36.4055 16.884 32.4918 17.1541 32.4932C17.3064 32.494 17.9681 32.8217 18.6239 33.2217ZM26.9453 33.6367C27.4895 34.065 27.862 34.6041 27.7732 34.8352C27.4719 35.6206 20.8246 45.1497 20.2646 45.5996C19.8194 45.9571 19.4972 45.9226 18.6605 45.4283C18.0848 45.0885 17.5248 44.5296 17.4158 44.1864C17.2906 43.7923 18.258 42.0323 20.044 39.4033C25.0286 32.0672 24.9905 32.0991 26.9453 33.6367ZM31.2279 38.3883C31.8139 38.8059 32.2936 39.3908 32.2936 39.6888C32.2936 40.3692 26.8591 48.2675 26.2235 48.5116C25.4829 48.796 23.4862 47.5901 23.4862 46.8587C23.4862 46.0602 29.233 37.6294 29.7776 37.6294C29.989 37.6294 30.6415 37.971 31.2279 38.3883ZM34.8877 44.6272C35.6191 45.3585 35.6239 45.4231 35.0092 46.3703C32.2892 50.5644 32.2771 50.5754 30.9174 50.0701C30.4466 49.8951 30.0917 49.4543 30.0917 49.044C30.0917 48.1218 33.0143 43.8679 33.6481 43.8679C33.9123 43.8679 34.4701 44.2096 34.8877 44.6272Z" fill="#984373"/>
</svg>
