<svg width="80" height="80" viewBox="0 0 80 80" fill="none" xmlns="http://www.w3.org/2000/svg">
<path fill-rule="evenodd" clip-rule="evenodd" d="M51.8664 0.0772365C50.3892 0.403019 49.16 1.49621 48.6507 2.93694C48.4836 3.40954 48.4732 3.50764 48.4478 4.85485C48.4213 6.25504 48.4232 6.27866 48.5755 6.56508C48.6773 6.75656 48.8361 6.92145 49.0415 7.04911L49.3529 7.24272H50.7241H52.0951L52.1125 10.518C52.122 12.3194 52.1198 13.7932 52.1076 13.7932C52.0726 13.7932 51.7666 13.5713 50.4571 12.596C49.7848 12.0953 47.8305 10.6445 46.1144 9.37199C44.3982 8.09951 42.4968 6.68789 41.8891 6.23503C40.6662 5.3239 40.5139 5.23084 40.1539 5.17508C39.7546 5.11319 39.455 5.26982 38.2273 6.18205C37.5936 6.65291 36.8145 7.23181 36.4961 7.46847C36.1776 7.70512 35.1788 8.44498 34.2765 9.11255C33.3741 9.78012 32.3319 10.5519 31.9604 10.8277C31.5888 11.1034 29.3596 12.7553 27.0064 14.4985C24.6533 16.2417 21.8784 18.2991 20.8399 19.0704C18.5966 20.7365 18.2516 20.9922 13.5923 24.442C9.46801 27.4957 8.35647 28.3204 7.0256 29.3144C6.50274 29.7048 5.73675 30.2711 5.32326 30.5728C4.45233 31.2085 2.37446 32.7491 1.62571 33.3145C0.995345 33.7905 0.800148 34.112 0.837849 34.6122C0.891442 35.3241 1.38207 35.8079 2.05658 35.814C2.49741 35.8179 2.63264 35.7464 3.74875 34.9192C5.27391 33.7887 6.64775 32.7685 8.09153 31.6944C9.30028 30.795 10.5684 29.857 12.6611 28.3141C13.7141 27.5377 19.3058 23.3905 20.6693 22.3747C21.4124 21.821 22.6792 20.8829 23.4845 20.29C24.2897 19.697 25.5201 18.7867 26.2188 18.2671C28.0568 16.8998 29.3841 15.9146 30.7465 14.9063C31.4059 14.4183 32.6321 13.5109 33.4714 12.8897C34.3106 12.2685 35.7408 11.2085 36.6496 10.5341C37.5583 9.85969 38.6858 9.02381 39.155 8.67666C39.6646 8.29957 40.0394 8.06408 40.0857 8.09177C40.1284 8.11726 40.6554 8.50461 41.257 8.95262C41.8585 9.40058 42.6836 10.0107 43.0906 10.3085C43.4975 10.6063 44.3805 11.2598 45.0528 11.7608C46.3003 12.6902 47.62 13.6709 48.6557 14.4381C48.9741 14.674 49.7413 15.2434 50.3606 15.7033C50.9798 16.1633 52.2505 17.1052 53.1844 17.7963C54.1182 18.4875 55.3489 19.4015 55.9193 19.8274C57.0316 20.6581 60.0133 22.8715 60.8717 23.5037C61.1591 23.7154 62.0891 24.4054 62.9383 25.0371C66.4438 27.6446 68.3368 29.0498 70.0879 30.3445C70.6141 30.7335 71.6093 31.4723 72.2993 31.9861C74.7866 33.8382 77.1823 35.5987 77.3047 35.6644C77.9181 35.9936 78.7136 35.7541 79.0273 35.1456C79.2071 34.7969 79.2136 34.3248 79.0431 33.9933C78.8868 33.6893 78.8264 33.6413 75.639 31.2828C74.9914 30.8036 73.9347 30.0194 73.291 29.5403C72.6472 29.0611 71.6323 28.3073 71.0357 27.8653C68.5329 26.0107 68.1636 25.7368 67.1202 24.9617C66.5187 24.5148 65.7886 23.9755 65.4978 23.7631L64.9692 23.377L64.9671 15.326L64.965 7.27499L66.1069 7.27098C67.4815 7.26614 67.7687 7.23762 68.022 7.0806C68.6081 6.71745 68.697 6.41542 68.6671 4.88712C68.6405 3.531 68.5686 3.14726 68.1979 2.38347C68.0144 2.00522 67.8257 1.7532 67.4097 1.33106C66.816 0.728415 66.3254 0.416572 65.5761 0.165459L65.1258 0.0145715L58.6921 0.00263231C53.518 -0.00691916 52.1818 0.0076656 51.8664 0.0772365ZM65.0293 2.6977C65.6747 2.98992 66.123 3.67672 66.123 4.37327V4.6935H64.7856C63.5254 4.6935 63.4317 4.70189 63.1648 4.83871C63.009 4.91861 62.7929 5.09551 62.6847 5.23194L62.488 5.47989L62.4558 13.4751L62.4237 21.4703L61.4586 20.7572C60.9278 20.365 59.9724 19.6563 59.3355 19.1824C58.6986 18.7086 57.8265 18.0644 57.3976 17.7511C56.9686 17.4378 56.1804 16.8526 55.6459 16.4507L54.6741 15.7201L54.6565 10.6424L54.6389 5.56475L54.4459 5.27911C54.3339 5.11332 54.134 4.93055 53.9694 4.84349C53.6982 4.70002 53.6258 4.6935 52.3044 4.6935H50.923L50.9682 4.29292C51.0394 3.66117 51.2599 3.23536 51.6838 2.91106C52.1458 2.55752 51.9043 2.56959 58.5635 2.56804C64.6351 2.56662 64.7447 2.56882 65.0293 2.6977ZM39.6164 12.0735C39.4925 12.1184 38.2238 13.0247 36.797 14.0874C35.3702 15.1502 33.8886 16.2521 33.5045 16.536C33.1204 16.82 31.4404 18.0688 29.7711 19.3111C27.0984 21.3002 24.8294 22.9881 19.9938 26.5838C19.2684 27.1232 18.1682 27.9417 17.549 28.4026C16.9297 28.8635 16.0902 29.4875 15.6832 29.7894C15.2763 30.0913 14.4512 30.7048 13.8496 31.1528C13.2481 31.6009 12.3072 32.2977 11.7587 32.7013C10.5315 33.6044 10.4214 33.7024 10.2723 34.0256C10.1572 34.2749 10.1531 34.9049 10.1517 52.4302L10.1503 70.5768L8.75097 70.5974L7.35166 70.6181L7.07353 70.7993C6.87724 70.9273 6.7496 71.0792 6.6399 71.3156L6.4844 71.6507L6.48376 75.3005L6.48312 78.9502L6.6502 79.2865C6.77424 79.5362 6.89435 79.6684 7.11664 79.7994L7.41599 79.9759L39.8737 79.9934C69.4932 80.0094 72.3553 80.0019 72.6042 79.9077C72.9251 79.7862 73.3017 79.374 73.3928 79.0443C73.4809 78.7257 73.4771 71.8566 73.3886 71.5352C73.3015 71.2189 72.9781 70.8539 72.6537 70.7062C72.4318 70.605 72.2139 70.5884 71.0933 70.5872L69.7908 70.5858L69.7744 52.4025L69.758 34.2192L69.6246 33.961C69.5299 33.7778 69.278 33.5422 68.756 33.1488C68.027 32.5993 65.666 30.8337 63.067 28.8946C61.4354 27.6773 59.2546 26.0467 56.0091 23.6176C54.6749 22.619 53.4283 21.6917 53.2389 21.5569C53.0496 21.4221 52.0422 20.6711 51.0003 19.888C49.9585 19.1049 48.3533 17.9013 47.4333 17.2134C45.1381 15.4973 42.171 13.2813 41.3386 12.6616C40.4255 11.9817 40.1392 11.884 39.6164 12.0735ZM41.1136 15.6843C41.6524 16.0871 42.8461 16.9788 43.7661 17.6658C44.6861 18.3527 46.1047 19.4123 46.9186 20.0204C47.7324 20.6285 48.9194 21.5146 49.5564 21.9896C50.1933 22.4645 51.8725 23.719 53.2879 24.7771C54.7033 25.8353 56.7299 27.3503 57.7914 28.1437C58.853 28.9372 60.9809 30.528 62.5202 31.6789C64.0594 32.8298 65.7459 34.0892 66.2678 34.4776L67.2167 35.1838V52.8849V70.5859L39.9691 70.5697L12.7216 70.5535L12.7206 52.8704C12.7196 35.5902 12.7223 35.185 12.8415 35.0904C12.9085 35.0372 13.7263 34.4273 14.6587 33.7352C15.5911 33.043 16.8221 32.1282 17.3942 31.7022C17.9663 31.2763 18.9663 30.533 19.6162 30.0504C20.2662 29.5678 21.5218 28.6342 22.4064 27.9758C24.9936 26.0501 27.7909 23.9697 29.9578 22.3597C32.1903 20.7009 34.4408 19.0247 36.3031 17.6336C36.9754 17.1313 37.7996 16.5192 38.1347 16.2733C38.4698 16.0274 39.0199 15.6172 39.3571 15.3618C39.6943 15.1064 40.007 14.9097 40.052 14.9247C40.097 14.9397 40.5747 15.2815 41.1136 15.6843ZM47.3689 28.0861C47.2274 28.1394 47.098 28.1835 47.0814 28.184C47.0647 28.1845 45.9543 29.2813 44.6136 30.6213C41.9045 33.3289 41.8688 33.3745 41.8702 34.1224C41.8713 34.7262 42.0161 34.9869 42.7948 35.788C43.4644 36.4768 43.4681 36.4822 43.433 36.7445C43.4117 36.9037 43.4411 37.1587 43.5071 37.3884C43.6101 37.7465 43.6801 37.8329 44.7046 38.8682C45.3031 39.4729 45.7923 39.9956 45.7918 40.0298C45.7908 40.1023 41.2695 44.6419 41.1984 44.6419C41.103 44.6419 39.5997 43.1781 39.2434 42.7384C37.9956 41.1982 36.834 38.871 36.5053 37.2524C36.4548 37.004 36.3935 36.5248 36.3691 36.1876C36.2336 34.3126 35.6804 33.1542 34.1841 31.6123C33.2677 30.6679 32.6054 30.1538 31.805 29.7656C30.8204 29.2879 30.3181 29.1847 29.0009 29.189C27.9663 29.1924 27.8291 29.2069 27.31 29.3668C26.5808 29.5915 25.7124 30.0225 25.357 30.3361C25.1465 30.5219 25.0522 30.6687 24.9773 30.9268C24.8867 31.2398 24.889 31.3655 24.9931 31.7668C25.0116 31.8378 25.8919 32.7687 26.9494 33.8354C28.153 35.0495 28.8722 35.8221 28.8722 35.9009C28.8722 35.9807 27.9853 36.9148 26.4552 38.4467L24.0382 40.8665L23.7482 40.5438C23.39 40.1452 23.1106 39.6074 22.9858 39.0762C22.86 38.5409 22.8632 37.5201 22.9927 36.9492C23.1756 36.1426 23.031 35.634 22.5188 35.2819C22.1929 35.0579 21.6371 35.0307 21.2477 35.2198C20.8575 35.4093 20.6751 35.6994 20.4973 36.4134C20.3754 36.9027 20.3532 37.1622 20.3561 38.0591C20.3592 38.9891 20.3804 39.2021 20.5236 39.7403C20.8665 41.0295 21.4107 41.8736 22.711 43.1333C23.9424 44.3263 24.6579 44.7857 25.8162 45.1273C26.2855 45.2657 26.6025 45.3081 27.489 45.3511C28.2866 45.3898 28.661 45.4354 28.8722 45.5193C30.0205 45.9756 32.063 47.5898 34.0352 49.5995C34.6279 50.2035 35.1128 50.7231 35.1128 50.7543C35.1128 50.7855 34.9 51.0182 34.6399 51.2714L34.1669 51.7319L33.7874 51.3472C33.017 50.5662 32.5887 50.5246 31.4234 51.1174C31.0287 51.3181 30.5112 51.6295 30.2733 51.8091C29.8648 52.1177 23.4333 58.5042 22.8353 59.195C22.2496 59.8717 21.919 60.7838 21.9151 61.7338C21.9106 62.8407 22.3116 63.8498 23.055 64.6023C23.8022 65.3587 24.6429 65.7382 25.6875 65.7906C26.4907 65.8308 27.0756 65.7148 27.761 65.3792C28.2413 65.144 28.402 64.9937 31.8461 61.5556C34.2094 59.1966 35.5543 57.8053 35.7925 57.4736C36.3024 56.7631 36.6821 56.0724 36.8493 55.5508C37.0588 54.8971 36.9772 54.6052 36.415 53.996L35.9924 53.5381L36.4562 53.0752L36.92 52.6122L37.6731 53.389C38.0873 53.8162 39.0932 54.8617 39.9085 55.7123C41.1964 57.0559 43.6704 59.6329 47.4593 63.5771C48.0356 64.1771 48.6563 64.7965 48.8387 64.9536C49.2185 65.281 50.1618 65.7569 50.6823 65.8839C51.2494 66.0224 52.3578 65.9908 52.9662 65.819C54.8813 65.2782 56.2161 63.6194 56.3251 61.6448C56.3738 60.7648 56.2387 60.0929 55.8521 59.2918C55.5723 58.7119 55.5002 58.6228 54.5186 57.6449C53.9478 57.0763 52.5979 55.7558 51.5186 54.7103C50.4394 53.6649 48.7168 51.9964 47.6906 51.0027C46.6644 50.0089 45.4195 48.8004 44.9241 48.317C44.4288 47.8337 43.7921 47.2178 43.5094 46.9484C43.2266 46.6789 43.0107 46.4491 43.0294 46.4376C43.0481 46.4261 44.0965 45.3867 45.3591 44.1278L47.6548 41.8389L48.7664 42.9376C49.9818 44.1389 50.0793 44.1994 50.8006 44.1994H51.1629L51.8394 44.8588C52.5993 45.5996 52.8588 45.7525 53.4211 45.7907C54.1531 45.8403 54.1686 45.8282 56.9386 43.0415C59.3739 40.5914 59.4233 40.5367 59.5295 40.1665C59.6464 39.7592 59.6226 39.367 59.4568 38.9678C59.4063 38.8465 59.0583 38.4349 58.6835 38.0533L58.0018 37.3594L57.9909 36.8541C57.9834 36.5077 57.943 36.2779 57.8624 36.123C57.7977 35.9988 56.409 34.5528 54.7764 32.9097C51.461 29.573 51.4651 29.5763 50.6894 29.5864L50.2641 29.5919L49.5885 28.9293C49.217 28.5648 48.8119 28.2149 48.6883 28.1515C48.3851 27.9961 47.6982 27.9621 47.3689 28.0861ZM49.4277 32.2196C49.581 32.2867 49.8755 32.3374 50.1561 32.3449L50.6273 32.3576L52.9387 34.6756L55.2501 36.9936V37.3533C55.2501 38.0691 55.386 38.3446 56.0879 39.0514L56.7209 39.6887L55.1009 41.2882L53.4809 42.8877L52.8375 42.2573C52.1124 41.5469 51.7702 41.3744 51.1957 41.4298L50.8868 41.4595L48.54 39.0979L46.1932 36.7361L46.1965 36.3489C46.2019 35.7101 46.1014 35.5163 45.3838 34.7821L44.7355 34.119L46.3396 32.5089L47.9436 30.8989L48.557 31.503C48.8943 31.8352 49.2862 32.1577 49.4277 32.2196ZM29.8239 31.7723C30.6383 31.9405 31.2147 32.2871 32.0933 33.1368C33.3576 34.3595 33.6994 35.006 33.8278 36.4173C33.9063 37.2808 34.0814 38.2055 34.2853 38.8336C34.4382 39.3044 34.8294 40.3345 34.9183 40.5001C34.9503 40.5596 35.1269 40.9133 35.3109 41.286C35.9631 42.6073 37.0736 44.227 37.8772 45.0291C38.2689 45.42 38.7683 45.9061 41.2588 48.3205C41.7897 48.8352 42.6578 49.6769 43.1881 50.1909C43.7183 50.7049 44.5864 51.5481 45.1172 52.0646C45.6479 52.5811 46.8782 53.7724 47.8512 54.7118C52.8701 59.5581 53.4081 60.0949 53.5694 60.419C53.8434 60.9693 53.8611 61.6343 53.6173 62.2197C53.4806 62.5479 53.0216 63.02 52.6471 63.2176C52.3663 63.3658 52.2451 63.3888 51.7438 63.3893C51.2673 63.3898 51.1111 63.3634 50.8616 63.2401C50.5659 63.094 49.8201 62.3639 47.7192 60.1636C47.2789 59.7024 46.4832 58.8747 45.9511 58.3243C45.419 57.7738 42.8248 55.0727 40.1863 52.3218C35.2001 47.1232 34.6279 46.5452 33.6653 45.7354C31.8371 44.1976 30.3901 43.2792 29.3389 42.9895C29.1305 42.9321 28.5048 42.8642 27.9072 42.8343C26.9706 42.7874 26.3305 42.6804 26.0823 42.5293C26.0516 42.5106 27.1127 41.4029 28.4401 40.0675C29.7674 38.7322 30.9243 37.5235 31.0109 37.3815C31.3512 36.8234 31.4999 36.0593 31.3872 35.4475C31.2381 34.6386 31.039 34.3483 29.7038 32.9932C28.7475 32.0225 28.5014 31.7394 28.5933 31.7155C28.8432 31.6508 29.348 31.6741 29.8239 31.7723ZM33.2746 54.4469L34.169 55.3458L33.9031 55.7538C33.524 56.3355 26.8753 62.9858 26.5322 63.1265C26.198 63.2634 25.6221 63.2547 25.3015 63.1078C24.7978 62.877 24.433 62.3178 24.433 61.7765C24.433 61.1909 24.4211 61.2048 28.1199 57.4967C31.2996 54.3089 32.1071 53.548 32.3103 53.548C32.3488 53.548 32.7827 53.9525 33.2746 54.4469ZM55.6522 73.1626L70.8839 73.1673V75.297V77.4267H39.9702H9.05657V75.2971V73.1675L24.4812 73.1513C32.9648 73.1423 40.0217 73.1402 40.1632 73.1465C40.3048 73.1528 47.2748 73.16 55.6522 73.1626Z" fill="#984373"/>
</svg>
