<svg width="48" height="54" viewBox="0 0 48 54" fill="none" xmlns="http://www.w3.org/2000/svg">
<path fill-rule="evenodd" clip-rule="evenodd" d="M22.4702 0.866638C17.3682 1.21991 12.5574 3.34683 8.55215 7.02008C7.83922 7.67391 6.22122 9.45728 5.62802 10.2431C2.5629 14.3034 0.676157 19.1292 0.155604 24.2402C-0.587506 31.5363 1.34635 38.6235 5.62802 44.2953C6.22122 45.0811 7.83922 46.8645 8.55215 47.5183C12.2307 50.8919 16.5865 52.9609 21.2513 53.5504C28.4297 54.4576 35.5569 51.7776 40.7211 46.2294C42.739 44.0614 44.2329 41.8122 45.4782 39.0678C49.4463 30.3219 48.6875 19.8214 43.5124 11.8646C41.1287 8.19984 37.8009 5.15497 34.1357 3.28528C30.4786 1.41963 26.4742 0.589432 22.4702 0.866638ZM29.7839 11.3159C31.727 11.4334 32.9093 11.728 34.1499 12.404C36.3668 13.6121 37.8169 15.9076 38.2472 18.8905C38.4388 20.218 38.4494 20.6579 38.4494 27.2448C38.4494 33.8145 38.4383 34.2804 38.2501 35.5746C37.6503 39.7006 35.2081 42.364 31.446 42.9953C30.3297 43.1826 29.8301 43.1961 23.9773 43.1961C18.1346 43.1961 17.6566 43.1833 16.5085 42.9968C12.9441 42.4179 10.4686 39.8776 9.77543 36.0876C9.53918 34.7959 9.48678 33.6092 9.45403 28.8081C9.4277 24.9452 9.47836 21.197 9.57291 20.0142C9.74121 17.9084 10.2187 16.3133 11.0865 14.9577C11.4344 14.4142 12.2232 13.5267 12.7047 13.137C13.8318 12.2249 15.2187 11.6515 16.798 11.4446C17.6324 11.3353 18.0046 11.3102 19.4207 11.268C21.1227 11.2172 28.7318 11.2524 29.7839 11.3159ZM19.1902 14.1337C18.2779 14.171 17.2249 14.2566 16.8387 14.3249C15.9693 14.4785 15.1506 14.7934 14.5533 15.2037C14.1575 15.4755 13.555 16.0928 13.25 16.5388C12.8038 17.1913 12.4371 18.2145 12.275 19.2597C12.0992 20.3934 12.076 21.3237 12.076 27.2448C12.076 33.1659 12.0992 34.0962 12.275 35.2298C12.627 37.4991 13.7248 39.0461 15.5087 39.7861C16.7759 40.3118 18.4332 40.4138 25.0411 40.3726C29.0777 40.3475 30.1616 40.31 31.047 40.1652C31.8813 40.0287 32.765 39.6998 33.353 39.307C33.9112 38.9342 34.5827 38.1941 34.921 37.5788C35.2771 36.9311 35.5753 35.958 35.6999 35.0371C35.8298 34.0766 35.8649 32.824 35.8876 28.3608C35.9101 23.9181 35.8699 21.2232 35.763 20.0146C35.5983 18.1533 35.0685 16.8133 34.1052 15.8216C33.1371 14.8252 31.9617 14.3549 30.0443 14.1968C29.4211 14.1454 20.2127 14.0919 19.1902 14.1337ZM32.1499 16.8635C32.6583 17.0095 33.0513 17.3755 33.2854 17.9212C33.5934 18.6389 33.4549 19.4901 32.9374 20.0605C32.5536 20.4836 32.0207 20.6723 31.446 20.5889C30.5143 20.4536 29.8238 19.3997 30.0044 18.3883C30.2056 17.2609 31.1633 16.5803 32.1499 16.8635ZM25.4121 19.1802C26.8934 19.509 28.145 20.2533 29.2323 21.4523C30.7436 23.1188 31.4918 25.2194 31.4088 27.5623C31.2563 31.8663 28.1702 35.2678 24.2654 35.4359C21.6647 35.5479 19.2219 34.1812 17.7922 31.8146C16.9942 30.4935 16.599 29.1498 16.5446 27.5734C16.4908 26.014 16.7428 24.7766 17.3956 23.3949C18.0782 21.9498 19.2724 20.6569 20.6086 19.9164C21.3426 19.5097 22.0978 19.2415 22.8762 19.1112C23.4974 19.0072 24.7913 19.0424 25.4121 19.1802ZM23.4237 21.9223C21.1749 22.1986 19.3776 24.2205 19.1455 26.7351C18.9999 28.3135 19.4997 29.8378 20.5395 30.986C21.2149 31.7319 21.8814 32.1606 22.7879 32.4323C23.1106 32.529 23.2608 32.5428 23.9773 32.5415C24.8855 32.5399 25.128 32.491 25.8602 32.162C27.0048 31.6477 28.0528 30.4601 28.4892 29.1828C28.7509 28.4169 28.8211 27.9258 28.7942 27.0494C28.7679 26.1957 28.6921 25.805 28.4156 25.0981C28.168 24.465 27.8746 24.0075 27.3486 23.434C26.8292 22.8679 26.3523 22.5203 25.7342 22.2576C25.0336 21.9598 24.1555 21.8324 23.4237 21.9223Z" fill="#63334E"/>
</svg>
