<svg width="24" height="24" viewBox="0 0 24 24" fill="none" xmlns="http://www.w3.org/2000/svg">
<path fill-rule="evenodd" clip-rule="evenodd" d="M10.4222 0.10798C5.02554 0.848052 0.838822 5.03843 0.0651033 10.4742C-0.069934 11.4226 0.0155612 13.5554 0.225189 14.4683C1.36396 19.4276 5.0818 22.9809 10.0666 23.8739C11.0132 24.0434 12.9732 24.0418 13.9902 23.8705C18.3261 23.1403 22.0013 20.0135 23.3717 15.8886C23.8236 14.5285 23.936 13.9155 23.9883 12.5245C24.075 10.2181 23.6844 8.43429 22.664 6.47675C21.5861 4.40906 19.8292 2.60903 17.7847 1.47805C15.5688 0.252143 12.9392 -0.23724 10.4222 0.10798ZM13.7529 1.79897C17.788 2.48783 21.0703 5.526 22.0697 9.49709C22.4649 11.0673 22.4954 12.5899 22.163 14.1543C21.4947 17.2991 19.373 19.9869 16.4669 21.37C11.9043 23.5417 6.50249 22.1197 3.53269 17.9653C1.37194 14.9427 1.03684 10.8391 2.67949 7.51786C4.75428 3.32306 9.20781 1.02299 13.7529 1.79897ZM8.96042 5.83034C7.46055 6.06431 6.26686 7.15409 5.87819 8.64434C5.70625 9.30345 5.70625 14.7408 5.87819 15.3999C6.20831 16.6656 7.12063 17.6504 8.34592 18.0636C8.79505 18.215 8.98294 18.2217 12.1685 18.1999L15.5187 18.1769L16.0528 17.9243C16.9957 17.4782 17.7937 16.5722 18.095 15.6052C18.2312 15.1682 18.2447 14.8457 18.2447 12.0234C18.2447 9.16363 18.2326 8.8828 18.0896 8.4204C17.6782 7.09129 16.4644 6.04513 15.0841 5.83018C14.4925 5.73802 9.55122 5.73818 8.96042 5.83034ZM15.3607 7.28492C15.9007 7.48842 16.5929 8.18502 16.769 8.70234C16.9622 9.26968 16.9678 14.7588 16.7757 15.3217C16.604 15.8249 16.0449 16.4239 15.4952 16.6934L15.0446 16.9144L12.2595 16.9387C9.19225 16.9655 8.82089 16.9254 8.18489 16.4989C7.75118 16.208 7.37103 15.6941 7.22414 15.2C7.04722 14.6052 7.04722 9.43902 7.22414 8.84421C7.37103 8.35017 7.75118 7.83625 8.18489 7.5454C8.81259 7.12435 9.0908 7.09436 12.1606 7.11614C14.6874 7.13405 15.0048 7.15078 15.3607 7.28492ZM14.762 8.18904C14.4623 8.48826 14.4495 8.87546 14.7283 9.20624C14.9795 9.50443 15.2453 9.57032 15.5999 9.42237C16.1283 9.2019 16.2239 8.52803 15.7799 8.1548C15.4493 7.87705 15.0613 7.89014 14.762 8.18904ZM11.5423 8.91081C10.2737 9.16008 9.31133 10.147 9.07207 11.4437C8.82997 12.756 9.54995 14.0988 10.817 14.6985C11.2845 14.9198 11.4022 14.9417 12.121 14.9417C12.8262 14.9417 12.9596 14.918 13.361 14.7212C14.0237 14.3961 14.5263 13.9056 14.843 13.275C15.0983 12.7668 15.1158 12.6822 15.1187 11.9432C15.1216 11.2495 15.0964 11.0996 14.9109 10.7028C14.6648 10.1766 14.0839 9.52629 13.6143 9.25145C13.2974 9.06602 12.3703 8.82125 12.042 8.8364C11.9551 8.84043 11.7302 8.87388 11.5423 8.91081ZM12.9124 10.255C13.5592 10.5963 13.8814 11.0717 13.9562 11.7951C13.9939 12.1604 13.9663 12.2869 13.7556 12.7144C13.4934 13.2463 13.2142 13.5028 12.7008 13.6838C12.2368 13.8472 11.7844 13.8232 11.3276 13.6108C10.631 13.2869 10.2484 12.6777 10.2484 11.8929C10.2484 11.1553 10.6185 10.6093 11.4099 10.1795C11.6919 10.0264 12.5619 10.0701 12.9124 10.255Z" fill="#F7F4EA"/>
</svg>
