<svg width="24" height="24" viewBox="0 0 24 24" fill="none" xmlns="http://www.w3.org/2000/svg">
<path fill-rule="evenodd" clip-rule="evenodd" d="M10.3929 0.0815853C5.05302 0.847674 0.906012 4.95262 0.119532 10.2508C-0.213112 12.4918 0.158351 15.054 1.11131 17.0907C2.21339 19.4464 4.29052 21.5638 6.67095 22.7584C9.07678 23.9657 11.9835 24.312 14.6727 23.7117C16.3892 23.3285 18.1443 22.4747 19.5262 21.3506C20.2532 20.7592 21.3382 19.6134 21.8129 18.9357C24.3594 15.3001 24.7089 10.5511 22.7209 6.59615C21.6078 4.38169 19.5586 2.33677 17.329 1.21545C16.5053 0.801195 15.0555 0.326322 14.1204 0.164533C13.0777 -0.0158807 11.3417 -0.054554 10.3929 0.0815853ZM13.5184 1.74162C14.386 1.87247 15.8885 2.34687 16.6557 2.73217C17.979 3.39684 19.4387 4.63006 20.3408 5.84561C20.7881 6.44817 21.5901 8.01129 21.8411 8.76941C22.214 9.89577 22.4027 11.473 22.3145 12.7265C21.9225 18.2968 17.22 22.5295 11.635 22.3391C6.70061 22.171 2.49704 18.4563 1.76816 13.6197C1.26422 10.276 2.34515 7.00402 4.74073 4.62217C6.34288 3.02923 8.54854 1.96513 10.846 1.67667C11.443 1.60178 12.811 1.635 13.5184 1.74162ZM7.21662 5.36513C6.35187 5.74956 6.19384 7.02027 6.93329 7.64264C7.23083 7.89306 7.73413 8.04482 8.0424 7.97703C8.60622 7.8532 9.08609 7.35584 9.19726 6.78004C9.28997 6.30035 8.92308 5.62218 8.43414 5.36923C8.15806 5.22647 7.53325 5.22434 7.21662 5.36513ZM13.5856 8.96671C13.3211 9.09898 12.9958 9.33101 12.8629 9.48246L12.6213 9.75773V9.32091V8.88408H11.4765H10.3316L10.3521 12.5963L10.3726 16.3085L11.5303 16.3253L12.688 16.3421L12.7154 14.0929C12.7452 11.6521 12.7702 11.4991 13.2054 11.0974C13.4805 10.8436 14.3256 10.7666 14.632 10.9674C15.0961 11.2716 15.1033 11.3126 15.1461 13.9224L15.1856 16.3243L16.3691 16.3225L17.5526 16.3206L17.5762 14.2005C17.612 10.9805 17.455 10.0797 16.7326 9.36005C16.2573 8.88668 15.7667 8.72624 14.7946 8.72624C14.1412 8.72624 14.0174 8.75086 13.5856 8.96671ZM6.64381 12.5985L6.66432 16.317H7.79465C8.4163 16.317 8.93933 16.3027 8.95693 16.2851C8.97445 16.2675 8.99094 14.6039 8.99354 12.5883L8.99819 8.92354L7.81074 8.90175L6.62329 8.87998L6.64381 12.5985Z" fill="#F7F4EA"/>
</svg>
