<svg width="80" height="80" viewBox="0 0 80 80" fill="none" xmlns="http://www.w3.org/2000/svg">
<path fill-rule="evenodd" clip-rule="evenodd" d="M40.898 5.49623C37.6929 8.63197 35.1342 11.7228 34.9405 12.6929C34.7542 13.6281 34.3468 15.354 34.0362 16.5282C33.6422 18.0184 33.755 19.2121 34.4102 20.4773C35.7206 23.0085 35.0821 23.2388 32.5882 21.1354C31.4194 20.1493 30.0296 19.5093 29.4999 19.7135C28.9703 19.917 28.2644 20.0837 27.9311 20.0837C27.5978 20.0837 26.1165 22.4937 24.6391 25.4393L21.9529 30.795H12.5792C3.48661 30.795 3.15667 30.8445 1.54641 32.4586C-0.0651918 34.074 -0.108604 34.3625 0.0737278 42.3331C0.228676 49.1019 0.437056 50.5439 1.26323 50.5439C2.08405 50.5439 2.29911 49.1622 2.4554 42.886C2.56025 38.6477 2.96966 34.8358 3.37173 34.3505C3.90203 33.7098 6.41994 33.4728 12.6987 33.4728C20.7467 33.4728 21.2997 33.5558 21.2997 34.7628C21.2997 36.1526 24.2277 38.8285 25.7478 38.8285C26.258 38.8285 28.81 37.7513 31.4181 36.4351C34.2399 35.0105 36.4038 34.2862 36.7625 34.6457C37.0944 34.9784 37.2821 39.7135 37.1806 45.1682C37.0196 53.7613 36.8386 55.1846 35.8261 55.8239C33.7951 57.1066 32.3645 55.5314 31.9598 51.5662C31.6939 48.9627 31.1937 47.7108 30.0489 46.7816C28.0607 45.1675 25.2162 45.1756 23.2105 46.8003C21.814 47.9317 21.5956 48.7853 21.2997 54.2628C21.0339 59.1859 20.7273 60.5972 19.797 61.1823C17.6898 62.5084 16.3306 60.8937 15.9433 56.6039C15.4751 51.4136 12.8396 49.4373 9.57235 51.8266C8.45431 52.644 8.2299 53.8557 7.94205 60.6266C7.66488 67.1451 7.40974 68.6039 6.43931 69.2151C5.58977 69.7506 4.95127 69.7506 4.10173 69.2151C3.14265 68.6105 2.87282 67.1692 2.59899 61.1849C2.32917 55.2964 2.07203 53.8912 1.26323 53.8912C0.407001 53.8912 0.261403 55.7878 0.261403 66.9456V80H33.3216C62.2629 80 66.3817 79.8748 66.3817 78.9958C66.3817 78.2427 65.4206 77.9414 62.5414 77.7908L58.7011 77.59V73.6067V69.6234H68.0514H77.4018V73.6067V77.59L73.5615 77.7908C70.6822 77.9414 69.7211 78.2427 69.7211 78.9958C69.7211 79.7992 70.723 80 74.7303 80H79.7394V70.9623C79.7394 63.3754 79.5784 61.9247 78.7375 61.9247C78.0623 61.9247 77.6683 62.7421 77.5287 64.4351L77.321 66.9456H61.3325H45.3434V62.9289V58.9121H54.6537H63.9633L64.171 61.4226C64.4556 64.871 66.3029 64.889 66.5874 61.4467L66.7931 58.9597L73.2663 58.7689L79.7394 58.5774L79.9297 51.7088C80.1114 45.1582 80.0433 44.7625 78.4577 43.1732C76.9817 41.6937 76.2323 41.5063 71.7916 41.5063H66.7891L66.5854 38.3264L66.3817 35.1464H60.7047C56.1037 35.1464 55.0277 35.3366 55.0277 36.1506C55.0277 36.9245 56.0616 37.2003 59.5359 37.353L64.0441 37.5505V41.5371V45.523H54.6938H45.3434V41.5431V37.5632L48.5159 37.359C50.8 37.2117 51.6883 36.8736 51.6883 36.1506C51.6883 35.3493 50.5088 35.1076 45.8537 34.953C40.9227 34.7896 39.9142 34.5627 39.3405 33.4875C38.887 32.6387 38.8837 32.077 39.3305 31.8005C40.542 31.05 40.0304 28.3789 38.3781 26.8224C36.9983 25.5237 36.8647 25.0551 37.4831 23.6934C38.0161 22.5218 38.0034 21.6348 37.4364 20.3869C36.3137 17.9173 36.4626 17.4059 38.3073 17.4059C40.1366 17.4059 44.6756 13.7774 44.6756 12.3153C44.6756 10.8131 42.3707 11.2382 40.6683 13.0544C38.9825 14.8532 37.3289 15.2596 37.3289 13.8758C37.3289 13.4065 39.7292 10.631 42.6632 7.70745C46.8281 3.55682 48.1739 2.56937 48.8031 3.2C49.4322 3.83063 49.2152 4.42042 47.8099 5.88987C45.8744 7.91498 45.4309 10.0418 46.9437 10.0418C48.2661 10.0418 52.0223 5.56787 52.0223 3.99331C52.0223 2.2554 49.7127 0 47.9335 0C47.0599 0 44.3597 2.11013 40.898 5.49623ZM32.3525 24.1533C32.5949 24.5469 32.1608 25.5438 31.388 26.3685C28.6618 29.2773 30.1485 31.0253 33.176 28.472C35.0667 26.8773 35.191 26.8586 36.2375 28.0181C36.838 28.6828 37.3289 29.5123 37.3289 29.8618C37.3289 30.2112 34.7448 31.7811 31.5864 33.351C27.0675 35.5977 25.6449 36.0402 24.9076 35.4269C23.5057 34.2601 23.7214 33.2713 26.6581 27.4176C29.0545 22.6397 29.4832 22.1356 30.628 22.7495C31.3339 23.1284 32.11 23.7603 32.3525 24.1533ZM42.6719 41.5063C42.6719 45.0765 42.5236 45.523 41.3362 45.523C40.1487 45.523 40.0004 45.0765 40.0004 41.5063C40.0004 37.9361 40.1487 37.4895 41.3362 37.4895C42.5236 37.4895 42.6719 37.9361 42.6719 41.5063ZM76.6003 44.9874C77.707 46.0967 77.6061 49.2057 76.432 50.1824C75.0255 51.3526 73.2182 50.7816 72.2644 48.8643C71.2018 46.7274 69.8914 46.73 69.3872 48.8703C68.8008 51.3593 67.091 50.9804 66.8359 48.3046C66.4772 44.5556 66.904 44.1841 71.5705 44.1841C73.9689 44.1841 76.1455 44.5315 76.6003 44.9874ZM28.4928 49.0377C28.8661 49.4982 29.2802 51.3058 29.4145 53.0544L29.6576 56.2343H26.8144H23.9712V53.0209C23.9712 51.2536 24.3319 49.446 24.7727 49.0042C25.8132 47.9612 27.6339 47.9772 28.4928 49.0377ZM56.0296 52.2176V56.2343L47.848 56.2356L39.6664 56.237L39.8929 52.2189L40.1193 48.2008H48.0744H56.0296V52.2176ZM64.2792 50.2166C64.7828 52.7404 67.3254 54.1028 69.5969 53.0658C70.6328 52.5925 71.5338 52.5791 72.3286 53.0249C72.9811 53.3911 74.3896 53.5618 75.4582 53.4045C77.1293 53.1588 77.4018 53.3376 77.4018 54.6765C77.4018 56.233 77.3944 56.2343 68.0514 56.2343H58.7011V52.2176V48.2008H61.2891C63.6327 48.2008 63.9152 48.3916 64.2792 50.2166ZM13.1669 55.1183C13.3125 55.8708 12.9318 56.2343 11.9981 56.2343C11.2367 56.2343 10.6136 55.8326 10.6136 55.3419C10.6136 53.2914 12.7768 53.1019 13.1669 55.1183ZM13.5569 60.5771C14.1213 62.8298 16.8082 64.4907 19.2947 64.1252C21.0325 63.8695 21.2997 64.0375 21.2997 65.3878C21.2997 66.8887 21.1047 66.9456 15.9566 66.9456H10.6136V62.9289C10.6136 59.435 10.7779 58.9121 11.8772 58.9121C12.666 58.9121 13.2971 59.5374 13.5569 60.5771ZM42.6719 62.9289V66.9456H33.3216H23.9712V62.9289V58.9121H33.3216H42.6719V62.9289ZM13.2851 73.6402V77.6569H7.94205H2.59899V74.7789C2.59899 71.9197 2.61368 71.9023 4.79298 72.1573C6.3064 72.3347 7.49791 71.9879 8.6333 71.0413C9.53895 70.2862 10.9555 69.6582 11.7824 69.6455C13.1762 69.6248 13.2851 69.9146 13.2851 73.6402ZM34.7842 72.1339C34.9238 73.8269 35.3179 74.6443 35.9931 74.6443C36.6683 74.6443 37.0624 73.8269 37.202 72.1339L37.4097 69.6234H46.7193H56.0296V73.6402V77.6569H35.9931H15.9566V73.6402V69.6234H25.2669H34.5765L34.7842 72.1339Z" fill="#984373"/>
</svg>
