<svg width="50" height="50" viewBox="0 0 50 50" fill="none" xmlns="http://www.w3.org/2000/svg">
<g clip-path="url(#clip0_148_54)">
<path d="M25 50C38.8071 50 50 38.8071 50 25C50 11.1929 38.8071 0 25 0C11.1929 0 0 11.1929 0 25C0 38.8071 11.1929 50 25 50Z" fill="#EBF0F1"/>
<mask id="mask0_148_54" style="mask-type:luminance" maskUnits="userSpaceOnUse" x="0" y="0" width="50" height="50">
<path d="M25 50C38.8071 50 50 38.8071 50 25C50 11.1929 38.8071 0 25 0C11.1929 0 0 11.1929 0 25C0 38.8071 11.1929 50 25 50Z" fill="white"/>
</mask>
<g mask="url(#mask0_148_54)">
<path d="M11.4512 40.5988L20.8984 49.9992H50V25.9988L36.523 12.4824L35.7098 12.1418L31.9789 8.39413L29.1668 9.08202L26.4523 6.39178L17.8164 23.1379L11.4512 40.5988Z" fill="#D9E1E2"/>
</g>
<path d="M22.9684 7.68865L11.727 32.3312C11.3703 33.1133 11.718 34.0445 12.5 34.4011L23.2781 39.3179C24.0602 39.6746 24.9914 39.3269 25.3481 38.5449L36.5899 13.9027C36.9465 13.1207 36.5988 12.1894 35.8168 11.8328L25.0387 6.9156C24.2567 6.55896 23.3254 6.90701 22.9684 7.68865Z" fill="#016938"/>
<path d="M17.3469 8.62304L15.9024 35.6699C15.8567 36.5281 16.5211 37.2676 17.3793 37.3137L29.209 37.9453C30.0672 37.991 30.8067 37.3265 30.8528 36.4683L32.2973 9.42147C32.343 8.56327 31.6785 7.82382 30.8203 7.77772L18.9907 7.14608C18.1324 7.10038 17.393 7.76522 17.3469 8.62304Z" fill="#027B38"/>
<path d="M12.7793 12.1648L22.2129 37.5547C22.5121 38.3601 23.416 38.7746 24.2219 38.475L35.327 34.3492C36.1324 34.05 36.5469 33.1461 36.2473 32.3402L26.8137 6.95077C26.5145 6.1453 25.6106 5.73084 24.8047 6.03045L13.7 10.1562C12.8945 10.4555 12.4801 11.3594 12.7793 12.1648Z" fill="#89BC49"/>
<path d="M12.7793 12.1648L22.2129 37.5547C22.5121 38.3601 23.416 38.7746 24.2219 38.475L35.327 34.3492C36.1324 34.05 36.5469 33.1461 36.2473 32.3402L26.8137 6.95077C26.5145 6.1453 25.6106 5.73084 24.8047 6.03045L13.7 10.1562C12.8945 10.4555 12.4801 11.3594 12.7793 12.1648Z" fill="#92C142"/>
<mask id="mask1_148_54" style="mask-type:luminance" maskUnits="userSpaceOnUse" x="12" y="5" width="25" height="34">
<path d="M12.7793 12.1648L22.2129 37.5547C22.5121 38.3601 23.416 38.7746 24.2219 38.475L35.327 34.3492C36.1324 34.05 36.5469 33.1461 36.2473 32.3402L26.8137 6.95077C26.5145 6.1453 25.6106 5.73084 24.8047 6.03045L13.7 10.1562C12.8945 10.4555 12.4801 11.3594 12.7793 12.1648Z" fill="white"/>
</mask>
<g mask="url(#mask1_148_54)">
<path d="M16.1179 8.91522C16.1625 9.01209 16.207 9.10897 16.2449 9.21014V9.21053L22.2601 6.97654C22.2601 6.97615 22.2597 6.97576 22.2597 6.97537C22.2219 6.87381 22.1929 6.77147 22.1633 6.66912L26.5535 5.03787L28.1461 9.32459C28.0344 9.37889 27.9211 9.43123 27.8031 9.47654L35.3468 29.7805C35.466 29.7379 35.5855 29.7031 35.7058 29.6715L37.5219 34.5597L33.2218 36.1574C33.0472 35.8918 32.8965 35.6051 32.7808 35.2945L26.7656 37.5281C26.7656 37.5285 26.766 37.5289 26.766 37.5293C26.8816 37.8398 26.9547 38.1554 26.9957 38.4707L22.8355 40.0164L21.0152 35.1172C21.0984 35.0801 21.1801 35.0414 21.2664 35.0094L13.725 14.7101C13.6386 14.7422 13.5511 14.766 13.4644 14.7922L11.8676 10.4945L16.1179 8.91522ZM14.9027 14.0422L22.5953 34.7469C23.948 34.6957 25.2531 35.2933 26.0976 36.3512L32.5183 33.9668C32.4668 32.5969 33.0793 31.2742 34.1625 30.4308L26.482 9.75897C25.1113 9.82733 23.784 9.22576 22.9285 8.15467L16.5082 10.539C16.5594 11.8922 15.9613 13.1976 14.9027 14.0422Z" fill="#3C9C36"/>
</g>
<path d="M28.8359 20.6457C28.1416 18.7771 25.6433 17.9814 23.2558 18.8685C20.8682 19.7557 19.4956 21.9896 20.1899 23.8582C20.8842 25.7269 23.3825 26.5225 25.77 25.6354C28.1576 24.7483 29.5302 22.5143 28.8359 20.6457Z" fill="#3C9C36"/>
<path d="M19.1067 13.4262L20.0824 16.0527C20.427 16.9797 21.4574 17.4519 22.3844 17.1074L22.561 17.0418C23.4879 16.6972 23.9602 15.6668 23.6156 14.7398L22.6399 12.1133C22.2953 11.1863 21.2649 10.714 20.3379 11.0586L20.1613 11.1242C19.2348 11.4683 18.7625 12.4992 19.1067 13.4262Z" fill="#3C9C36"/>
<path d="M25.1961 29.8164L26.1719 32.4429C26.5164 33.3699 27.5469 33.8422 28.4739 33.4976L28.6504 33.432C29.5774 33.0875 30.0496 32.057 29.7051 31.1301L28.7293 28.5035C28.3848 27.5765 27.3543 27.1043 26.4274 27.4488L26.2508 27.5144C25.3243 27.8586 24.852 28.8894 25.1961 29.8164Z" fill="#3C9C36"/>
<path d="M37.3973 41.1133H12.5617C11.6988 41.1133 10.9992 40.4137 10.9992 39.5508V21.2941C10.9992 20.4312 11.6988 19.7316 12.5617 19.7316H37.3973C38.2601 19.7316 38.9598 20.4312 38.9598 21.2941V39.5508C38.9598 40.4137 38.2601 41.1133 37.3973 41.1133Z" fill="#F49C0B"/>
<path opacity="0.67" d="M37.3149 19.7316H36.0813C36.9895 19.7316 37.7262 20.468 37.7262 21.3765V33.2812L29.0164 32.5109L37.186 40.6805C36.8938 40.9473 36.5082 41.114 36.0817 41.114H37.3152C38.2235 41.114 38.9602 40.3777 38.9602 39.4691V21.3765C38.9598 20.468 38.2235 19.7316 37.3149 19.7316Z" fill="#E48316"/>
<path d="M34.0984 39.5043H33.273C33.1594 39.5043 33.0676 39.4125 33.0676 39.2988C33.0676 39.1851 33.1594 39.0933 33.273 39.0933H34.0984C34.2121 39.0933 34.3039 39.1851 34.3039 39.2988C34.3043 39.4125 34.2121 39.5043 34.0984 39.5043ZM31.2086 39.5043H30.3832C30.2695 39.5043 30.1777 39.4125 30.1777 39.2988C30.1777 39.1851 30.2695 39.0933 30.3832 39.0933H31.2086C31.3223 39.0933 31.414 39.1851 31.414 39.2988C31.414 39.4125 31.3223 39.5043 31.2086 39.5043ZM28.3191 39.5043H27.4937C27.3801 39.5043 27.2883 39.4125 27.2883 39.2988C27.2883 39.1851 27.3801 39.0933 27.4937 39.0933H28.3191C28.4328 39.0933 28.5246 39.1851 28.5246 39.2988C28.5246 39.4125 28.4328 39.5043 28.3191 39.5043ZM25.4297 39.5043H24.6043C24.4906 39.5043 24.3988 39.4125 24.3988 39.2988C24.3988 39.1851 24.4906 39.0933 24.6043 39.0933H25.4297C25.5433 39.0933 25.6351 39.1851 25.6351 39.2988C25.6351 39.4125 25.5433 39.5043 25.4297 39.5043ZM22.5402 39.5043H21.7141C21.6004 39.5043 21.5086 39.4125 21.5086 39.2988C21.5086 39.1851 21.6004 39.0933 21.7141 39.0933H22.5402C22.6539 39.0933 22.7457 39.1851 22.7457 39.2988C22.7457 39.4125 22.6535 39.5043 22.5402 39.5043ZM19.65 39.5043H18.8246C18.7109 39.5043 18.6191 39.4125 18.6191 39.2988C18.6191 39.1851 18.7109 39.0933 18.8246 39.0933H19.65C19.7637 39.0933 19.8555 39.1851 19.8555 39.2988C19.8558 39.4125 19.7637 39.5043 19.65 39.5043ZM16.7605 39.5043H15.9351C15.8215 39.5043 15.7297 39.4125 15.7297 39.2988C15.7297 39.1851 15.8215 39.0933 15.9351 39.0933H16.7605C16.8742 39.0933 16.966 39.1851 16.966 39.2988C16.966 39.4125 16.8742 39.5043 16.7605 39.5043ZM13.8711 39.5043H13.8601C13.5199 39.5043 13.2433 39.2277 13.2433 38.8875V38.7078C13.2433 38.5941 13.3351 38.5023 13.4488 38.5023C13.5625 38.5023 13.6543 38.5941 13.6543 38.7078V38.8875C13.6543 39.0008 13.7465 39.093 13.8598 39.093C13.9734 39.093 14.0707 39.1848 14.0707 39.2984C14.0711 39.4125 13.9848 39.5043 13.8711 39.5043ZM36.1617 39.4996C36.0625 39.4996 35.975 39.4273 35.959 39.3258C35.9414 39.2137 36.018 39.1086 36.1305 39.091C36.2297 39.0754 36.3043 38.9883 36.3043 38.8879V38.6445C36.3043 38.5308 36.3961 38.4391 36.5098 38.4391C36.6234 38.4391 36.7152 38.5308 36.7152 38.6445V38.8879C36.7152 39.1933 36.4961 39.45 36.1937 39.4973C36.1836 39.4988 36.1726 39.4996 36.1617 39.4996ZM13.4492 36.8496C13.3355 36.8496 13.2437 36.7578 13.2437 36.6441V35.818C13.2437 35.7043 13.3355 35.6125 13.4492 35.6125C13.5629 35.6125 13.6547 35.7043 13.6547 35.818V36.6441C13.6547 36.7578 13.5625 36.8496 13.4492 36.8496ZM36.5098 36.7859C36.3961 36.7859 36.3043 36.6941 36.3043 36.5805V35.7543C36.3043 35.6406 36.3961 35.5488 36.5098 35.5488C36.6234 35.5488 36.7152 35.6406 36.7152 35.7543V36.5805C36.7156 36.6937 36.6234 36.7859 36.5098 36.7859ZM13.4492 33.9598C13.3355 33.9598 13.2437 33.868 13.2437 33.7543V32.9289C13.2437 32.8152 13.3355 32.7234 13.4492 32.7234C13.5629 32.7234 13.6547 32.8152 13.6547 32.9289V33.7543C13.6547 33.868 13.5625 33.9598 13.4492 33.9598ZM13.4492 31.0703C13.3355 31.0703 13.2437 30.9785 13.2437 30.8648V30.0391C13.2437 29.9254 13.3355 29.8336 13.4492 29.8336C13.5629 29.8336 13.6547 29.9254 13.6547 30.0391V30.8644C13.6547 30.9781 13.5625 31.0703 13.4492 31.0703ZM13.4492 28.1808C13.3355 28.1808 13.2437 28.089 13.2437 27.9754V27.15C13.2437 27.0363 13.3355 26.9445 13.4492 26.9445C13.5629 26.9445 13.6547 27.0363 13.6547 27.15V27.9754C13.6547 28.0887 13.5625 28.1808 13.4492 28.1808ZM13.4492 25.2906C13.3355 25.2906 13.2437 25.1988 13.2437 25.0851V24.2598C13.2437 24.1461 13.3355 24.0543 13.4492 24.0543C13.5629 24.0543 13.6547 24.1461 13.6547 24.2598V25.0851C13.6547 25.1988 13.5625 25.2906 13.4492 25.2906ZM36.5098 25.2269C36.3961 25.2269 36.3043 25.1351 36.3043 25.0215V24.1961C36.3043 24.0824 36.3961 23.9906 36.5098 23.9906C36.6234 23.9906 36.7152 24.0824 36.7152 24.1961V25.0215C36.7156 25.1348 36.6234 25.2269 36.5098 25.2269ZM13.4492 22.4012C13.3355 22.4012 13.2437 22.3094 13.2437 22.1957V21.9574C13.2437 21.6523 13.4715 21.3898 13.7734 21.3465C13.8836 21.3332 13.9898 21.4082 14.0058 21.5211C14.0219 21.6336 13.9437 21.7375 13.8312 21.7535C13.7308 21.768 13.6551 21.8555 13.6551 21.957V22.1953C13.6547 22.3094 13.5625 22.4012 13.4492 22.4012ZM36.5098 22.3375C36.3961 22.3375 36.3043 22.2457 36.3043 22.132V21.9578C36.3043 21.8445 36.2121 21.7523 36.0988 21.7523C35.9851 21.7523 35.8902 21.6605 35.8902 21.5469C35.8902 21.4332 35.9797 21.3414 36.0933 21.3414H36.0984C36.4387 21.3414 36.7152 21.618 36.7152 21.9582V22.1324C36.7156 22.2453 36.6234 22.3375 36.5098 22.3375ZM34.0293 21.7519H33.2039C33.0902 21.7519 32.9984 21.6601 32.9984 21.5465C32.9984 21.4328 33.0902 21.341 33.2039 21.341H34.0293C34.143 21.341 34.2348 21.4328 34.2348 21.5465C34.2348 21.6601 34.1426 21.7519 34.0293 21.7519ZM31.1394 21.7519H30.314C30.2004 21.7519 30.1086 21.6601 30.1086 21.5465C30.1086 21.4328 30.2004 21.341 30.314 21.341H31.1394C31.2531 21.341 31.3449 21.4328 31.3449 21.5465C31.3449 21.6601 31.2531 21.7519 31.1394 21.7519ZM28.25 21.7519H27.4246C27.3109 21.7519 27.2191 21.6601 27.2191 21.5465C27.2191 21.4328 27.3109 21.341 27.4246 21.341H28.25C28.3637 21.341 28.4555 21.4328 28.4555 21.5465C28.4555 21.6601 28.3637 21.7519 28.25 21.7519ZM25.3605 21.7519H24.5344C24.4207 21.7519 24.3289 21.6601 24.3289 21.5465C24.3289 21.4328 24.4207 21.341 24.5344 21.341H25.3605C25.4742 21.341 25.566 21.4328 25.566 21.5465C25.566 21.6601 25.4742 21.7519 25.3605 21.7519ZM22.4707 21.7519H21.6453C21.5316 21.7519 21.4398 21.6601 21.4398 21.5465C21.4398 21.4328 21.5316 21.341 21.6453 21.341H22.4707C22.5844 21.341 22.6762 21.4328 22.6762 21.5465C22.6762 21.6601 22.5844 21.7519 22.4707 21.7519ZM19.5808 21.7519H18.7555C18.6418 21.7519 18.55 21.6601 18.55 21.5465C18.55 21.4328 18.6418 21.341 18.7555 21.341H19.5808C19.6945 21.341 19.7863 21.4328 19.7863 21.5465C19.7863 21.6601 19.6945 21.7519 19.5808 21.7519ZM16.6914 21.7519H15.8652C15.7516 21.7519 15.6598 21.6601 15.6598 21.5465C15.6598 21.4328 15.7516 21.341 15.8652 21.341H16.6914C16.8051 21.341 16.8969 21.4328 16.8969 21.5465C16.8969 21.6601 16.8051 21.7519 16.6914 21.7519Z" fill="#FBCA76"/>
<path opacity="0.5" d="M12.2328 39.4683V21.3765C12.2328 20.4683 12.9691 19.7316 13.8777 19.7316H12.6441C11.7359 19.7316 10.9992 20.468 10.9992 21.3765V39.4687C10.9992 40.3769 11.7355 41.1137 12.6441 41.1137H13.8777C12.9691 41.1133 12.2328 40.3769 12.2328 39.4683Z" fill="#F9C187"/>
<path d="M39.0008 33.7121H31.3937C29.668 33.7121 28.2687 32.3129 28.2687 30.5871V30.2582C28.2687 28.5324 29.668 27.1332 31.3937 27.1332H39.0008C39.4324 27.1332 39.782 27.4828 39.782 27.9145V32.9309C39.782 33.3621 39.4324 33.7121 39.0008 33.7121Z" fill="#D17311"/>
<mask id="mask2_148_54" style="mask-type:luminance" maskUnits="userSpaceOnUse" x="36" y="27" width="4" height="7">
<path d="M38.9598 27.1332H36.9832V33.7121H38.9598C39.4141 33.7121 39.782 33.3438 39.782 32.8898V27.9555C39.782 27.5012 39.4141 27.1332 38.9598 27.1332Z" fill="white"/>
</mask>
<g mask="url(#mask2_148_54)">
<path d="M39.7821 25.6367H38.5485V35.6656H39.7821V25.6367Z" fill="#CA6213"/>
</g>
<mask id="mask3_148_54" style="mask-type:luminance" maskUnits="userSpaceOnUse" x="28" y="27" width="12" height="7">
<path d="M39.0008 33.7121H31.3937C29.668 33.7121 28.2687 32.3129 28.2687 30.5871V30.2582C28.2687 28.5324 29.668 27.1332 31.3937 27.1332H39.0008C39.4324 27.1332 39.782 27.4828 39.782 27.9145V32.9309C39.782 33.3621 39.4324 33.7121 39.0008 33.7121Z" fill="white"/>
</mask>
<g mask="url(#mask3_148_54)">
<path d="M30.3882 31.5203L32.8019 33.8949H37.0453L32.5519 29.4008L30.3882 31.5203Z" fill="#C56415"/>
</g>
<path d="M31.4324 31.9414C32.2712 31.9414 32.9512 31.2614 32.9512 30.4227C32.9512 29.5839 32.2712 28.9039 31.4324 28.9039C30.5937 28.9039 29.9137 29.5839 29.9137 30.4227C29.9137 31.2614 30.5937 31.9414 31.4324 31.9414Z" fill="#D8B997"/>
<path d="M30.736 30.4227C30.736 29.8324 30.9199 29.3031 31.2114 28.9262C30.4781 29.034 29.9137 29.6594 29.9137 30.4227C29.9137 31.1856 30.4785 31.8113 31.2114 31.9191C30.9199 31.5422 30.736 31.0129 30.736 30.4227Z" fill="#F1D2AE"/>
<path d="M32.1285 30.4227C32.1285 31.0129 31.9445 31.5422 31.6531 31.9191C32.3863 31.8113 32.9508 31.1859 32.9508 30.4227C32.9508 29.6598 32.3859 29.034 31.6531 28.9262C31.9445 29.3027 32.1285 29.832 32.1285 30.4227Z" fill="#C8A57E"/>
</g>
<defs>
<clipPath id="clip0_148_54">
<rect width="50" height="50" fill="white"/>
</clipPath>
</defs>
</svg>
