<svg width="24" height="24" viewBox="0 0 24 24" fill="none" xmlns="http://www.w3.org/2000/svg">
<path fill-rule="evenodd" clip-rule="evenodd" d="M9.92161 0.1386C4.83209 1.06571 0.882962 5.14051 0.112801 10.2594C-0.0524931 11.3578 -0.0345651 12.9097 0.156317 14.0284C0.996765 18.954 4.82869 22.877 9.7511 23.8516C10.8299 24.0652 13.4207 24.0444 14.467 23.8139C18.1223 23.0082 21.1577 20.6454 22.7741 17.3478C23.272 16.3322 23.4749 15.7595 23.7417 14.618C24.0146 13.4504 24.0826 11.4527 23.891 10.2333C23.0993 5.19488 19.5171 1.37637 14.4896 0.2118C13.4181 -0.0364158 11.0874 -0.0737722 9.92161 0.1386ZM14.4779 1.91347C18.8751 3.07621 21.9008 6.62759 22.3473 11.1501C22.5943 13.6521 21.6965 16.6065 20.1151 18.4951C18.3913 20.5541 16.1819 21.85 13.6997 22.2582C12.5271 22.451 10.5711 22.3801 9.55367 22.1078C6.93155 21.4061 4.81701 19.9043 3.34989 17.7015C2.12389 15.8607 1.58931 13.9139 1.67776 11.6112C1.75721 9.54265 2.26667 7.94867 3.38622 6.26615C4.43002 4.69741 5.74748 3.54875 7.46084 2.71334C9.22774 1.85191 10.2483 1.63225 12.2783 1.67664C13.4929 1.70315 13.8131 1.73765 14.4779 1.91347ZM11.4491 5.48915C9.24954 5.9165 7.7461 7.08676 7.1297 8.85126C6.52499 10.5825 7.0301 12.5537 8.24379 13.1988C8.71092 13.4471 8.84076 13.3699 9.01111 12.7429L9.13976 12.2689L8.87756 11.8523C8.45513 11.1811 8.35665 10.4926 8.56712 9.68302C9.01522 7.95919 10.4479 6.85896 12.2356 6.86561C14.0206 6.87233 15.253 7.9376 15.3735 9.57818C15.4581 10.7297 15.0671 12.1863 14.4555 12.998C13.7563 13.9258 12.5318 14.0976 11.9955 13.343C11.7146 12.9478 11.7302 12.6875 12.1154 11.3392C12.5842 9.69829 12.5796 9.08689 12.095 8.65447C11.8839 8.46607 11.3139 8.40025 10.9464 8.52186C10.5917 8.63905 10.1539 9.14157 9.99229 9.61688C9.85053 10.0338 9.83016 10.9447 9.95534 11.2698C10.0975 11.6388 10.0606 11.8833 9.54024 14.0246L9.04033 16.0818V17.4428C9.04033 19.3039 9.13217 19.3671 9.95936 18.0751C10.4713 17.2755 10.6695 16.784 10.9739 15.5594C11.2977 14.2567 11.2586 14.3297 11.4866 14.6013C11.9125 15.1083 13.1036 15.3797 13.9872 15.171C15.9043 14.718 17.2077 12.8457 17.3465 10.3452C17.3816 9.71206 17.3617 9.39208 17.2626 9.00009C16.8406 7.33078 15.5893 6.09303 13.8578 5.6322C13.3892 5.5075 11.8309 5.41493 11.4491 5.48915Z" fill="#F7F4EA"/>
</svg>
