<svg width="19" height="18" viewBox="0 0 19 18" fill="none" xmlns="http://www.w3.org/2000/svg">
<path d="M8.90938 13.375H10.2219V9.74375H13.875V8.43125H10.2219V4.625H8.90938V8.43125H5.125V9.74375H8.90938V13.375ZM9.5 17.75C8.30417 17.75 7.17396 17.5203 6.10938 17.0609C5.04479 16.6016 4.1151 15.9745 3.32031 15.1797C2.52552 14.3849 1.89844 13.4552 1.43906 12.3906C0.979687 11.326 0.75 10.1885 0.75 8.97813C0.75 7.78229 0.979687 6.65208 1.43906 5.5875C1.89844 4.52292 2.52552 3.59688 3.32031 2.80938C4.1151 2.02188 5.04479 1.39844 6.10938 0.939062C7.17396 0.479687 8.31146 0.25 9.52187 0.25C10.7177 0.25 11.8479 0.479687 12.9125 0.939062C13.9771 1.39844 14.9031 2.02188 15.6906 2.80938C16.4781 3.59688 17.1016 4.52292 17.5609 5.5875C18.0203 6.65208 18.25 7.78958 18.25 9C18.25 10.1958 18.0203 11.326 17.5609 12.3906C17.1016 13.4552 16.4781 14.3849 15.6906 15.1797C14.9031 15.9745 13.9771 16.6016 12.9125 17.0609C11.8479 17.5203 10.7104 17.75 9.5 17.75ZM9.52187 16.4375C11.5781 16.4375 13.3281 15.712 14.7719 14.2609C16.2156 12.8099 16.9375 11.049 16.9375 8.97813C16.9375 6.92188 16.2156 5.17188 14.7719 3.72812C13.3281 2.28437 11.5708 1.5625 9.5 1.5625C7.44375 1.5625 5.6901 2.28437 4.23906 3.72812C2.78802 5.17188 2.0625 6.92917 2.0625 9C2.0625 11.0562 2.78802 12.8099 4.23906 14.2609C5.6901 15.712 7.45104 16.4375 9.52187 16.4375Z" fill="#D3CAAC"/>
</svg>
