<svg width="24" height="28" viewBox="0 0 24 28" fill="none" xmlns="http://www.w3.org/2000/svg">
<path d="M15.1001 27.2667C14.8557 27.2667 14.6057 27.2222 14.3501 27.1333C14.0945 27.0444 13.8668 26.9 13.6668 26.7L11.0334 24.1C10.8557 23.9222 10.7168 23.7222 10.6168 23.5C10.5168 23.2778 10.4557 23.0444 10.4334 22.8C10.4112 22.5556 10.439 22.3167 10.5168 22.0833C10.5945 21.85 10.7112 21.6333 10.8668 21.4333L11.4001 20.7333L0.100098 4.76667L4.86676 0L22.6334 17.7333C22.8334 17.9333 22.9834 18.1556 23.0834 18.4C23.1834 18.6444 23.2334 18.8889 23.2334 19.1333C23.2334 19.3778 23.1834 19.6278 23.0834 19.8833C22.9834 20.1389 22.8334 20.3667 22.6334 20.5667L16.5001 26.7C16.3001 26.9 16.0779 27.0444 15.8334 27.1333C15.589 27.2222 15.3445 27.2667 15.1001 27.2667ZM15.0668 25.3L21.2334 19.1333L18.5334 16.4667L12.4001 22.6333L15.0668 25.3Z" fill="#63334E"/>
</svg>
