<svg width="25" height="25" viewBox="0 0 25 25" fill="none" xmlns="http://www.w3.org/2000/svg">
<path fill-rule="evenodd" clip-rule="evenodd" d="M3.74919 6.48349C3.50192 5.0212 4.87486 3.79833 6.32594 4.18839L7.42459 4.48372C8.29656 4.71811 9.22176 4.36556 9.707 3.61401L10.76 1.98302C11.5704 0.727911 13.4293 0.727909 14.2396 1.98302L15.2927 3.61401C15.7779 4.36556 16.7031 4.71811 17.5751 4.48372L18.6737 4.18839C20.1248 3.79833 21.4977 5.0212 21.2505 6.48349L20.9795 8.08611C20.8402 8.90976 21.2262 9.73357 21.9526 10.1632L22.957 10.7571C24.2919 11.5466 24.2919 13.4535 22.957 14.2429L21.9526 14.8369C21.2262 15.2665 20.8402 16.0903 20.9795 16.9139L21.2505 18.5166C21.4977 19.9788 20.1248 21.2017 18.6737 20.8116L17.5751 20.5163C16.7031 20.2819 15.7779 20.6345 15.2927 21.386L14.2396 23.017C13.4293 24.2721 11.5704 24.2721 10.76 23.017L9.707 21.386C9.22176 20.6345 8.29656 20.2819 7.42459 20.5163L6.32594 20.8116C4.87486 21.2017 3.50192 19.9788 3.74919 18.5166L4.02019 16.9139C4.15946 16.0903 3.77349 15.2665 3.04704 14.8369L2.04271 14.2429C0.707767 13.4535 0.707768 11.5466 2.04271 10.7571L3.04704 10.1632C3.77349 9.73357 4.15946 8.90976 4.02019 8.08611L3.74919 6.48349ZM9.40653 6.40232H6.31322V9.45117L3.21991 12.5L6.31322 15.5489V18.5977H9.40653L12.4998 21.6466L15.5931 18.5977H18.6865V15.5489L21.7798 12.5L18.6865 9.45117V6.40232H15.5931L12.4998 3.35347L9.40653 6.40232Z" fill="#CD5A7C"/>
<path d="M17.1368 12.5C17.1368 15.0258 15.0594 17.0733 12.4969 17.0733C9.93427 17.0733 7.85689 15.0258 7.85689 12.5C7.85689 9.97427 9.93427 7.92674 12.4969 7.92674C15.0594 7.92674 17.1368 9.97427 17.1368 12.5ZM9.91612 12.5C9.91612 13.9048 11.0716 15.0437 12.4969 15.0437C13.9222 15.0437 15.0776 13.9048 15.0776 12.5C15.0776 11.0952 13.9222 9.95637 12.4969 9.95637C11.0716 9.95637 9.91612 11.0952 9.91612 12.5Z" fill="#CD5A7C"/>
</svg>
