<svg width="80" height="80" viewBox="0 0 80 80" fill="none" xmlns="http://www.w3.org/2000/svg">
<path fill-rule="evenodd" clip-rule="evenodd" d="M34.6903 0.355917C27.9412 2.19322 23.2747 7.18648 21.4081 14.5687C20.7416 17.2049 20.8227 18.5476 21.6814 19.092C22.7862 19.7924 23.4807 18.9103 24.1441 15.9655C25.2152 11.2077 27.5101 7.49042 30.6956 5.35419C32.7688 3.96349 33.9455 4.00937 34.6814 5.50975C35.085 6.33342 35.2166 8.10118 35.2432 13.0618C35.2623 16.6242 35.394 19.7293 35.5359 19.9616C35.6779 20.1942 36.1773 20.3845 36.6457 20.3845C38.1515 20.3845 38.3395 19.3899 38.1306 12.5253C37.9568 6.81586 37.7816 5.42086 36.9901 3.44879C36.7646 2.88678 36.9968 2.82154 39.2251 2.82154C42.7363 2.82154 42.9094 2.92226 42.1986 4.55096C41.7596 5.55635 41.5908 7.37823 41.485 12.2453C41.332 19.2945 41.4407 20.2135 42.4577 20.4831C44.0202 20.8967 44.1837 20.2522 44.3087 13.1987C44.4085 7.57537 44.5232 6.40152 45.0535 5.58215C45.9416 4.20937 47.0064 4.35346 49.4517 6.17607C52.9611 8.79187 55.1104 12.4389 55.7589 16.8784C56.0237 18.6888 56.5936 19.4408 57.5558 19.2494C58.6995 19.0214 58.9384 18.0737 58.5023 15.4952C57.2825 8.28398 51.6747 2.45057 44.085 0.497138C41.771 -0.0985694 36.6428 -0.175273 34.6903 0.355917ZM19.3193 20.3605L17.931 20.9623L19.3193 22.5261C20.9681 24.3831 24.4591 26.1233 28.2708 26.9885C36.868 28.9402 49.8205 27.9889 56.4414 24.9197C58.1512 24.1272 61.2421 21.6967 61.2368 21.1494C61.2354 21.0243 60.7522 20.644 60.1625 20.3046C59.0963 19.6899 59.0811 19.6935 57.3278 20.9691C53.3087 23.8928 46.5848 25.2218 37.1908 24.9498C28.8057 24.7068 24.4297 23.5354 21.7512 20.8171L20.708 19.7583L19.3193 20.3605ZM21.9469 30.1001C21.9469 31.1467 22.2025 31.8789 22.8319 32.6363C23.3713 33.2858 23.7168 34.1481 23.7168 34.846C23.7168 36.5528 25.052 41.1296 26.0857 42.9655C26.5851 43.8526 27.5377 45.1569 28.2025 45.8637C29.4032 47.1411 29.4103 47.1684 29.3073 50.139L29.2035 53.129L18.9731 57.3818C8.42336 61.7668 5.65381 63.2948 3.62584 65.8504C1.21487 68.888 0 72.5748 0 76.8545V79.1667H1.55965H3.11965L3.24106 75.672C3.3869 71.4859 4.18018 69.5278 6.81062 66.8618C8.44 65.2102 13.9515 62.1679 14.6018 62.5607C14.7476 62.6492 14.8673 66.4213 14.8673 70.944V79.1667H16.2832H17.6991L17.7034 70.1164L17.708 61.0661L20.0927 60.0962C21.4046 59.5628 22.7565 59.0216 23.0973 58.8929C23.6782 58.6743 23.7168 59.2979 23.7168 68.9131V79.1667H25.1327H26.5487V68.2823V57.3983L28.3657 56.6334C29.3653 56.213 30.3034 55.8689 30.4503 55.8689C30.5975 55.8689 32.5246 57.885 34.7324 60.3492C38.429 64.4747 38.8464 64.8296 40 64.8296C41.1536 64.8296 41.571 64.4747 45.2676 60.3492C47.4754 57.885 49.3809 55.8689 49.5016 55.8689C49.6219 55.8689 50.5604 56.2212 51.5862 56.6517L53.4513 57.4345V68.3006V79.1667H54.8673H56.2832V68.9131C56.2832 59.3005 56.3218 58.6736 56.9027 58.8858C57.2435 59.0105 58.5968 59.5517 59.9104 60.089L62.2984 61.0661L62.2998 70.1164L62.3009 79.1667H63.7168H65.1327V70.944C65.1327 66.4213 65.252 62.6492 65.3982 62.5607C66.0499 62.1668 71.5593 65.2099 73.1855 66.8618C75.7462 69.463 76.555 71.4673 76.7416 75.672L76.8966 79.1667H78.4481H80V76.7329C80 70.8196 77.5278 66.012 72.7894 62.7109C71.9278 62.1109 66.7267 59.7564 61.2308 57.4786C55.7352 55.2008 50.9398 53.1753 50.5749 52.9774C50.0159 52.6746 49.9115 52.1903 49.9115 49.9039C49.9115 47.2738 49.9554 47.134 51.3373 45.3766C53.3087 42.8698 54.7727 39.6034 55.5596 35.9571C55.926 34.26 56.4775 32.5893 56.7855 32.2449C57.1073 31.8847 57.3451 30.9836 57.3451 30.1233V28.6283H55.9292C54.6917 28.6283 54.5133 28.7312 54.5133 29.4445C54.5133 29.8936 54.2361 30.6599 53.8977 31.147C53.5589 31.6345 53.0092 33.3933 52.6758 35.0553C51.5218 40.8088 48.7073 44.9003 44.4057 47.0773C42.6591 47.9612 41.8789 48.1404 39.823 48.1293C32.6584 48.091 27.5274 42.7393 26.6736 34.4148C26.5069 32.789 26.2021 31.8506 25.6092 31.1373C25.1526 30.5875 24.7788 29.7983 24.7788 29.3832C24.7788 28.7416 24.5664 28.6283 23.3628 28.6283H21.9469V30.1001ZM47.0729 51.4781L47.0665 53.8975L43.6612 57.661C41.7883 59.7309 40.1313 61.4245 39.9795 61.4245C39.8273 61.4245 38.0177 59.5445 35.9575 57.247C32.2297 53.0893 32.2124 53.0613 32.2124 51.2434C32.2124 50.239 32.2888 49.4172 32.3819 49.4172C32.475 49.4172 33.7653 49.8297 35.2489 50.334C36.7324 50.8383 38.6871 51.253 39.5926 51.2555C41.1819 51.2598 45.2814 50.1523 46.3717 49.4243C46.6637 49.2293 46.9427 49.0673 46.9911 49.0641C47.0396 49.0612 47.0768 50.1473 47.0729 51.4781ZM37.8761 69.8475V71.6397H39.646H41.4159V69.8475V68.0554H39.646H37.8761V69.8475ZM37.8761 77.3745V79.1667H39.646H41.4159V77.3745V75.5824H39.646H37.8761V77.3745Z" fill="#984373"/>
</svg>
