<svg width="80" height="80" viewBox="0 0 80 80" fill="none" xmlns="http://www.w3.org/2000/svg">
<path fill-rule="evenodd" clip-rule="evenodd" d="M37.757 0.07462C33.0438 0.320838 27.5295 1.69622 23.1388 3.72066C18.8145 5.71439 15.5702 7.94514 12.0594 11.3386C5.71903 17.4674 1.75312 25.1039 0.325772 33.9329C0.0448101 35.6703 0.001166 36.4772 1.74566e-05 39.9588C-0.00127465 44.1316 0.0676381 44.9122 0.717281 48.0833C1.46886 51.7515 2.85213 55.7069 4.30259 58.3355C4.56403 58.8093 4.95568 59.5199 5.17304 59.9147C7.38714 63.9385 11.4688 68.6129 15.4348 71.6672C22.0649 76.7727 29.4095 79.4803 37.8786 79.941C50.9618 80.6528 63.3926 74.896 71.6669 64.2936C73.5593 61.8687 75.7692 57.9642 77.0049 54.8629C78.2393 51.7646 79.4634 46.9291 79.4634 45.1514C79.4634 43.5519 77.9525 42.583 76.5945 43.3113C75.7782 43.749 75.5826 44.155 75.2258 46.1515C74.4813 50.3182 73.2336 53.8555 71.2318 57.4741C69.2174 61.1154 66.0463 64.9291 62.7378 67.6897C58.3882 71.3186 52.6978 74.0508 47.0889 75.2031C44.3399 75.7679 41.9531 75.9634 38.9055 75.8739C35.755 75.7813 34.0835 75.5652 31.3744 74.9003C26.1928 73.6287 21.5074 71.3235 17.3618 68.0056C15.8729 66.814 13.1718 64.1095 11.9336 62.5707C3.23417 51.7582 1.51437 36.9181 7.52095 24.4943C9.27534 20.8659 11.2243 18.0567 14.0144 15.135C16.8063 12.2112 19.9505 9.89737 23.6874 8.01592C27.5074 6.09269 30.4124 5.18879 35.3164 4.39687C37.0837 4.1116 42.9464 4.1584 45.0072 4.47425C49.0196 5.08944 53.483 6.55426 56.7517 8.32904C57.9946 9.00366 61.0867 10.979 61.0867 11.0982C61.0867 11.141 60.6629 11.7616 60.1449 12.4776C59.1657 13.8311 58.9612 14.1892 59.1691 14.1873C59.5414 14.184 66.862 12.9117 66.9363 12.8375C67.0369 12.7368 65.8502 5.32144 65.6848 5.01765C65.6097 4.87954 65.2864 5.23674 64.6156 6.19878C64.0867 6.95725 63.6079 7.60632 63.5516 7.64121C63.4954 7.67595 62.7401 7.23175 61.8732 6.65403C57.1518 3.50718 51.8383 1.45746 45.8686 0.480198C44.5946 0.271594 40.0116 -0.0471258 39.0491 0.00585059C38.8122 0.0189152 38.2308 0.0497828 37.757 0.07462ZM39.3288 6.647C38.3634 7.05832 38.3458 7.12752 38.309 10.6442C38.2747 13.9453 38.3574 14.6167 38.8573 15.0955C39.2504 15.4721 39.9961 15.5551 40.5257 15.2812C41.4002 14.8289 41.418 14.7448 41.418 11.0509C41.418 7.89618 41.3996 7.6603 41.1189 7.2062C40.9433 6.92208 40.6619 6.68806 40.437 6.63896C40.2264 6.59302 39.986 6.53545 39.903 6.51104C39.8199 6.48663 39.5615 6.5478 39.3288 6.647ZM57.3703 19.6081C56.3918 20.6148 52.4516 24.6883 48.6143 28.6599C42.201 35.2981 41.6082 35.8728 41.2764 35.7761C41.0779 35.7181 40.348 35.6626 39.6542 35.6525L38.393 35.6342L37.4289 34.6977C36.8988 34.1825 35.8834 33.2132 35.1728 32.5434C34.4621 31.8737 33.113 30.5971 32.1749 29.7065C30.1471 27.7816 29.7867 27.5413 28.9276 27.5413C27.3221 27.5413 26.2538 29.2761 26.9866 30.6931C27.1034 30.9193 29.0578 32.8604 31.3295 35.0071L35.4599 38.9101L35.4654 40.0296C35.4726 41.4814 35.9666 42.5237 37.0762 43.4282C40.3685 46.112 45.1451 43.048 44.1481 38.8917L43.9696 38.1477L45.0241 37.0434C45.6041 36.436 48.215 33.7424 50.826 31.0577C60.6593 20.9469 61.224 20.3444 61.3915 19.7853C61.6978 18.7631 60.8681 17.7777 59.7012 17.7777C59.1833 17.7777 59.0409 17.8895 57.3703 19.6081ZM7.08493 38.8031C6.50449 39.1977 6.38748 39.4141 6.38748 40.0932C6.38748 40.6238 6.87303 41.2415 7.46812 41.4677C7.67371 41.546 9.24462 41.6099 10.9591 41.6099C14.283 41.6099 14.3655 41.5944 15.0374 40.8422C15.3541 40.4876 15.363 39.6265 15.0545 39.186C14.6003 38.5375 14.0939 38.4514 10.7324 38.4514C7.64743 38.4514 7.59532 38.4564 7.08493 38.8031ZM65.2954 38.6565C64.8139 38.8712 64.3888 39.5187 64.3888 40.0372C64.3888 40.5017 64.8173 41.1329 65.3119 41.3972C65.6925 41.6005 66.2145 41.6262 69.137 41.5853C71.9298 41.5464 72.5595 41.4999 72.7394 41.3197C73.4277 40.6307 73.4818 39.6756 72.8713 38.9921L72.4526 38.5232L69.1027 38.4879C66.4595 38.4601 65.6562 38.4956 65.2954 38.6565ZM39.0886 64.8045C38.4012 65.1775 38.3531 65.4305 38.3115 68.8877C38.2787 71.5963 38.3097 72.205 38.5031 72.6564C38.63 72.9525 38.8208 73.1947 38.9274 73.1947C39.0337 73.1947 39.1209 73.2593 39.1209 73.3383C39.1209 73.5644 40.1773 73.5059 40.6874 73.2513C40.9415 73.1245 41.2099 72.862 41.2837 72.6677C41.3575 72.4736 41.418 70.7942 41.418 68.9358V65.5569L40.9298 65.0688C40.3829 64.5218 39.7714 64.434 39.0886 64.8045Z" fill="#984373"/>
</svg>
