<svg width="24" height="24" viewBox="0 0 24 24" fill="none" xmlns="http://www.w3.org/2000/svg">
<path fill-rule="evenodd" clip-rule="evenodd" d="M11.0685 0.0114281C6.38951 0.44957 2.46783 3.37625 0.772466 7.69513C-0.295679 10.4162 -0.253121 13.8872 0.881788 16.6083C1.39968 17.8499 2.31492 19.2621 3.24962 20.2616C4.93264 22.0614 7.38329 23.3862 9.89557 23.8543C10.9431 24.0494 13.0534 24.0484 14.114 23.8524C15.5272 23.5912 17.2296 22.932 18.4375 22.1784C20.2601 21.0413 21.9806 19.0884 22.9245 17.0851C23.7556 15.3214 23.9977 14.1763 23.9999 11.9984C24.0014 10.6277 23.9772 10.3098 23.8165 9.59014C23.2898 7.23125 22.2157 5.24947 20.561 3.58423C18.318 1.32672 15.4557 0.0852534 12.3186 0.00913723C11.7833 -0.00389096 11.2208 -0.00286344 11.0685 0.0114281ZM14.1416 1.86214C16.083 2.28204 17.7415 3.16338 19.1639 4.53126C20.8352 6.13846 21.8627 8.06426 22.2581 10.3309C22.415 11.2303 22.4144 12.8261 22.2567 13.7355C21.599 17.5296 18.868 20.6838 15.2215 21.8613C13.0539 22.5612 10.9116 22.5628 8.8014 21.8663C7.58818 21.4658 6.35786 20.8047 5.49167 20.0879C2.47558 17.5917 1.07923 13.7496 1.8198 9.98493C2.40146 7.02825 4.3994 4.34065 7.11331 2.86444C9.19589 1.73154 11.8123 1.35846 14.1416 1.86214ZM13.5527 7.0498C12.5112 7.40914 11.7805 8.44555 11.7805 9.56321C11.7805 9.79519 11.7487 9.98493 11.7098 9.98493C11.6709 9.98493 11.2349 9.88229 10.7408 9.7569C9.23852 9.37553 8.18256 8.8045 7.15231 7.81641C6.71794 7.39983 6.68599 7.38356 6.54796 7.50823C6.21414 7.80978 6.13788 8.90857 6.402 9.61319C6.48934 9.84628 6.68939 10.1869 6.84657 10.3702L7.13229 10.7033L6.90526 10.6491C6.78044 10.6192 6.61827 10.5642 6.54502 10.5267C6.26958 10.386 6.22228 10.4437 6.26033 10.8732C6.32931 11.6504 6.92979 12.5325 7.60771 12.8526C7.77091 12.9297 7.90435 13.0055 7.90435 13.0211C7.90435 13.0366 7.77091 13.0334 7.60771 13.0141C7.12889 12.9573 7.0664 13.0565 7.29683 13.5074C7.59023 14.0815 8.0878 14.4953 8.81405 14.7692C9.03159 14.8512 9.23623 14.9098 9.2689 14.8994C9.42624 14.8489 9.30063 15.0205 9.08878 15.1454C8.49519 15.4954 7.48755 15.765 6.61575 15.8072C6.03805 15.8351 5.77123 15.877 5.78998 15.9368C5.83372 16.0759 6.69865 16.5147 7.35062 16.7286C8.30161 17.0406 8.82718 17.12 9.92151 17.1172C12.0795 17.1116 13.7441 16.4199 15.1468 14.946C16.1808 13.8595 16.8563 12.1619 16.9752 10.3514L17.0271 9.56069L17.5086 9.10952C18.0334 8.61776 18.318 8.20963 18.1908 8.13122C18.1475 8.10445 18.0491 8.11598 17.972 8.15672C17.8196 8.23726 17.2387 8.40686 17.2387 8.37078C17.2387 8.35854 17.35 8.21041 17.4861 8.0416C17.7606 7.70105 17.9776 7.2498 17.9152 7.14913C17.8929 7.1132 17.5803 7.20298 17.2205 7.34866C16.8607 7.49434 16.5037 7.61412 16.4271 7.61483C16.3506 7.61554 16.1401 7.50926 15.9594 7.37851C15.3158 6.9132 14.3363 6.77945 13.5527 7.0498Z" fill="#F7F4EA"/>
</svg>
