<svg width="48" height="54" viewBox="0 0 48 54" fill="none" xmlns="http://www.w3.org/2000/svg">
<path fill-rule="evenodd" clip-rule="evenodd" d="M22.5973 0.833625C21.3932 0.948251 20.7238 1.03557 19.947 1.17912C14.7862 2.13312 9.96719 5.00817 6.37833 9.27431C4.75153 11.2081 3.33546 13.4972 2.31923 15.8359C1.13844 18.5533 0.40627 21.4161 0.0809607 24.5876C-0.0269869 25.6401 -0.0269869 28.8698 0.0809607 29.9223C0.40627 33.0938 1.13844 35.9565 2.31923 38.674C3.60255 41.6273 5.47962 44.4271 7.67715 46.6657C9.42503 48.4461 11.5094 50.0076 13.6273 51.1229C16.0958 52.4228 18.6962 53.2288 21.5771 53.5869C22.5331 53.7058 25.4669 53.7058 26.4229 53.5869C29.3038 53.2288 31.9042 52.4228 34.3727 51.1229C36.4906 50.0076 38.575 48.4461 40.3229 46.6657C42.5204 44.4271 44.3974 41.6273 45.6808 38.674C46.8616 35.9565 47.5937 33.0938 47.919 29.9223C48.027 28.8698 48.027 25.6401 47.919 24.5876C47.5937 21.4161 46.8616 18.5533 45.6808 15.8359C44.3974 12.8825 42.5204 10.0827 40.3229 7.84419C38.575 6.06374 36.4906 4.50229 34.3727 3.38698C31.9648 2.11901 29.4606 1.3273 26.7099 0.964466C25.9251 0.86093 23.2156 0.774733 22.5973 0.833625ZM33.251 12.9626C34.6213 13.2519 35.99 14.0218 36.9964 15.0695L37.3363 15.4232L38.0485 15.2239C39.1277 14.9219 40.1298 14.5081 41.1378 13.9484C42.1468 13.3881 42.1041 13.3743 41.8065 14.1638C41.3252 15.4405 40.4047 16.7049 39.3116 17.5906C38.8252 17.9848 38.8611 17.9928 39.9903 17.741C40.7645 17.5684 42.0862 17.1324 42.6698 16.857C42.8268 16.783 42.9698 16.7385 42.9878 16.7583C43.1361 16.9217 40.5452 19.9984 39.7345 20.6216L39.3692 20.9024L39.3676 21.7798C39.3593 26.5633 38.0329 31.3362 35.6027 35.3272C34.2922 37.4794 32.3174 39.7355 30.4792 41.1805C27.5151 43.5106 24.2882 44.8256 20.3656 45.302C19.2757 45.4343 16.8307 45.4164 15.7114 45.2678C13.2165 44.9366 10.9741 44.2165 8.79775 43.0473C8.15102 42.6999 6.72073 41.8171 6.72073 41.7654C6.72073 41.7569 7.48829 41.7486 8.42634 41.7471C10.2806 41.7441 10.708 41.6917 12.1501 41.2909C13.919 40.7993 15.6959 39.887 17.2426 38.6764C17.4505 38.5137 17.6213 38.3616 17.6222 38.3385C17.6231 38.3153 17.3729 38.2762 17.066 38.2516C15.893 38.1575 14.4064 37.5247 13.3838 36.6844C12.721 36.1397 11.9406 35.2115 11.5137 34.4601C11.1887 33.8879 10.6874 32.6918 10.7458 32.6275C10.7611 32.6107 10.9879 32.6304 11.2498 32.6714C11.808 32.7588 13.0854 32.7013 13.6388 32.5639C13.8492 32.5117 13.9783 32.454 13.9257 32.4357C12.8813 32.0726 12.4588 31.8912 11.981 31.6008C9.77495 30.26 8.27982 27.7123 8.14324 25.0614C8.12016 24.6138 8.12845 24.3068 8.16352 24.3068C8.19603 24.3068 8.27924 24.3491 8.34836 24.4007C8.79488 24.7339 10.1562 25.1783 10.9608 25.2535L11.4072 25.2952L11.184 25.1003C10.7508 24.722 9.95724 23.8454 9.6758 23.4342C8.18277 21.2528 7.76099 18.3136 8.57599 15.7698C8.68578 15.427 8.86183 14.9585 8.96716 14.7286L9.15864 14.3107L9.51162 14.7637C10.1606 15.5965 11.596 17.1161 12.3984 17.82C15.5979 20.6263 19.2593 22.2939 23.3305 22.7988C23.7864 22.8553 24.2496 22.9019 24.3599 22.9022C24.5596 22.9029 24.5602 22.9019 24.5015 22.6397C24.3737 22.0688 24.3592 20.5073 24.4746 19.7473C25.1733 15.1471 29.1257 12.0916 33.251 12.9626Z" fill="#63334E"/>
</svg>
