<svg width="24" height="24" viewBox="0 0 24 24" fill="none" xmlns="http://www.w3.org/2000/svg">
<path fill-rule="evenodd" clip-rule="evenodd" d="M10.5324 0.0204156C7.9292 0.40593 5.9029 1.31714 4.04531 2.93763C2.0801 4.65188 0.746271 6.92947 0.180188 9.53731C0.025672 10.2492 0 10.5984 0 11.9883C0 13.741 0.100711 14.4379 0.553878 15.8229C1.79634 19.6194 5.13666 22.682 9.12611 23.6822C10.7221 24.0824 13.0547 24.1075 14.6132 23.7412C16.9886 23.1831 18.8834 22.1144 20.6112 20.3584C21.4234 19.533 21.7306 19.151 22.2081 18.3725C22.9868 17.1032 23.5204 15.7946 23.82 14.42C23.9698 13.7327 23.9972 13.362 23.9998 11.9883C24.0024 10.5735 23.9795 10.2631 23.8188 9.54672C22.7692 4.86631 19.2522 1.29658 14.6529 0.243294C13.8286 0.05449 13.5068 0.0228633 12.2361 0.0053112C11.4298 -0.00575771 10.6632 0.00104496 10.5324 0.0204156ZM12.7907 1.63355C16.8739 1.99329 20.2282 4.51226 21.7482 8.36029C21.8398 8.59203 22.01 9.15621 22.1266 9.61407C22.3224 10.3835 22.3381 10.5662 22.3342 12.0278C22.3302 13.5517 22.3207 13.6436 22.0755 14.5579C21.1448 18.0277 18.576 20.7424 15.1679 21.858C14.1063 22.2054 13.1789 22.3456 11.941 22.3456C6.83468 22.3456 2.43414 18.543 1.69365 13.4905C1.56457 12.61 1.58493 11.1112 1.73818 10.2139C2.08604 8.17639 3.02241 6.35524 4.52779 4.78835C5.4014 3.87912 6.36534 3.1745 7.44212 2.65837C8.82373 1.99606 9.93514 1.71419 11.7606 1.5631C11.826 1.55764 12.2896 1.58935 12.7907 1.63355ZM7.64022 7.63346C6.81281 7.89176 6.15441 8.4558 5.78705 9.22105L5.54038 9.73497V11.9883V14.2416L5.74918 14.6859C5.98816 15.1946 6.43856 15.7232 6.85781 15.9872C7.53253 16.4123 7.67231 16.4231 12.1667 16.3988L16.3169 16.3763L16.7714 16.1638C17.3246 15.9051 17.9202 15.3273 18.1824 14.795C18.3762 14.4015 18.3771 14.3894 18.3771 11.9883C18.3771 9.63266 18.3729 9.5683 18.1951 9.20825C17.9033 8.61724 17.4345 8.1476 16.8494 7.86013L16.3205 7.60024L12.0794 7.58594C9.74679 7.57811 7.74917 7.59946 7.64022 7.63346ZM12.1791 10.6594C12.7552 10.9721 13.4762 11.3612 13.7812 11.524C14.0863 11.6868 14.346 11.868 14.3583 11.9268C14.3726 11.9953 13.7841 12.3261 12.7113 12.8525C11.2267 13.5808 11.0203 13.6617 10.8466 13.5827L10.6513 13.4939V11.8753C10.6513 10.4172 10.6651 10.2487 10.79 10.1761C10.8662 10.1318 10.9743 10.0945 11.0301 10.0931C11.0859 10.0919 11.603 10.3466 12.1791 10.6594Z" fill="#F7F4EA"/>
</svg>
