<svg version="1.2" xmlns="http://www.w3.org/2000/svg" viewBox="0 0 512 512" width="24" height="24">
	<title>211660_email_icon (1)-svg</title>
	<style>
		.s0 { fill: #0f0547 } 
	</style>
	<g id="Layer">
		<path id="Layer" class="s0" d="m37.9 131.9c12.7 6.7 189.2 102.9 195.7 106.3 6.6 3.5 13.3 5.1 23.7 5.1 10.4 0 17.1-1.6 23.7-5.1 6.6-3.4 183-99.6 195.7-106.3 4.7-2.4 12.7-6.8 14.4-11.8 3-8.8-0.2-12.1-13-12.1h-220.8-220.7c-12.9 0-16.1 3.5-13.1 12.1 1.7 5.1 9.7 9.4 14.4 11.8z"/>
		<path id="Layer" class="s0" d="m486.7 137.1c-9.4 4.8-94.4 65.3-150.7 101.7l95 106.8c2.3 2.3 3.3 5.1 2 6.5-1.4 1.2-4.4 0.6-6.8-1.6l-113.8-96.1c-17.2 11.1-29.3 18.7-31.4 19.9-8.9 4.5-15.1 5-23.7 5-8.5 0-14.8-0.5-23.7-5-2.2-1.2-14.2-8.8-31.4-19.9l-113.8 96.1c-2.3 2.3-5.4 3-6.8 1.6-1.4-1.3-0.4-4.2 1.9-6.5l94.8-106.8c-56.2-36.4-142.1-96.9-151.6-101.7-10.1-5.2-10.7 0.9-10.7 5.7 0 4.7 0 236.6 0 236.6 0 10.8 15.8 24.2 27.1 24.2h214.2 214.2c11.3 0 24.8-13.5 24.8-24.2 0 0 0-232 0-236.6 0-4.9 0.7-10.9-9.6-5.7z"/>
	</g>
</svg>