<svg version="1.2" xmlns="http://www.w3.org/2000/svg" viewBox="0 0 100 100" width="24" height="24">
	<title>facebook-svg</title>
	<style>
		.s0 { fill: #3a5897 } 
	</style>
	<path id="Layer" fill-rule="evenodd" class="s0" d="m96.2 50c0 25.5-20.7 46.2-46.2 46.2-25.5 0-46.2-20.7-46.2-46.2 0-25.5 20.7-46.2 46.2-46.2 25.5 0 46.2 20.7 46.2 46.2zm-31-7.7c0 0-4.6-0.4-6.4-0.3-1.6 0.1-3.8 0.2-5.3 0 0 0 0-4.5 0.1-5.7 0.1-1.9 0.6-2.9 2.2-4 2.8-2.1 6.1-1.9 8.9-1.9l0.2-9.9c-0.4-1.6-10.6 0.4-12.1 0.7-4.1 0.9-6.3 3.8-8.5 7.2-1.2 1.8-1.3 3.9-1.5 6-0.2 1.8-0.4 7.4-0.4 7.4-1.7 0.1-7.4 0.4-7.4 0.4q0 2.2 0 4.4c0 1.5 0 5.9 0 5.9 2.3 0 7.2 0 7.2 0 0.2 0.6 0.2 12.5 0.3 13.6 0.1 5.6-0.1 9.9 0 14l11.1-0.1c0.2-4.9-0.2-18.2-0.3-19.7 0-2.5 0.6-5.1 0.2-7.6 0-0.1 5.6-0.2 5.9-0.2 2.2 0.1 3.9 0 5.7 0.1 0-0.3 0.1-7.3 0.1-10.3z"/>
</svg>