<svg version="1.2" xmlns="http://www.w3.org/2000/svg" viewBox="0 0 512 512" width="24" height="24">
	<title>linkedin-svg</title>
	<style>
		.s0 { fill: #0a66c2 } 
	</style>
	<g id="linkedin__x2C__social__x2C__media_x2C__icons_x2C_">
		<g id="Layer">
			<path id="Layer" fill-rule="evenodd" class="s0" d="m495.9 256c0 66.3-26.8 126.2-70.3 169.7-43.4 43.4-103.3 70.2-169.6 70.2-66.3 0-126.2-26.8-169.7-70.2-43.4-43.5-70.3-103.4-70.3-169.7 0-66.3 26.9-126.2 70.3-169.7 43.5-43.4 103.4-70.2 169.7-70.2 66.3 0 126.2 26.8 169.6 70.2 43.5 43.5 70.3 103.4 70.3 169.7zm-18.7 0c0-61.1-24.7-116.4-64.9-156.4-40-40.1-95.2-64.8-156.3-64.8-61.2 0-116.4 24.7-156.4 64.8-40.1 40-64.8 95.3-64.8 156.4 0 61.1 24.7 116.4 64.8 156.4 40 40.1 95.2 64.8 156.4 64.8 61.1 0 116.3-24.7 156.3-64.8 40.2-40 64.9-95.3 64.9-156.4z"/>
			<path id="Layer" class="s0" d="m145 258.3v104.7h53v-113.4-31.6h-53z"/>
			<path id="Layer" class="s0" d="m310.3 218.7c-21.7 0-36.3 9.3-42.4 18.3h-1.9v-19h-39v29.6 115.4h44v-70.3c0-18.9 1.8-37.1 24.9-37.1 23.3 0 23.1 21.5 23.1 38.4v69h44v-78c0-7.5 0.2-15-0.6-21.4-3.3-27.3-15.2-44.9-52.1-44.9z"/>
			<path id="Layer" class="s0" d="m172.9 147.7c-13.9 0-25.2 11.3-25.2 25.3 0 13.9 11.3 25.2 25.2 25.2 14 0 25.3-11.3 25.3-25.2 0-14-11.3-25.3-25.3-25.3z"/>
		</g>
	</g>
	<g id="Layer_1">
	</g>
</svg>