<svg version="1.2" xmlns="http://www.w3.org/2000/svg" viewBox="0 0 24 24" width="24" height="24">
	<title>7830799_phone_actions_ring_icon (1)-svg</title>
	<style>
		.s0 { fill: #0f0547 } 
	</style>
	<path id="Layer" class="s0" d="m17.2 16.2q-0.4-0.4-0.8-0.6-0.5-0.2-1-0.2-0.5 0-1 0.2-0.4 0.2-0.8 0.6l-0.4 0.3q-0.7-0.6-1.5-1.3-0.7-0.7-1.5-1.4-0.7-0.8-1.4-1.5-0.7-0.8-1.3-1.5l0.3-0.4q0.4-0.4 0.6-0.8 0.2-0.5 0.2-1 0-0.5-0.2-1-0.2-0.4-0.6-0.8l-2.1-2.1q-0.3-0.3-0.8-0.5-0.4-0.2-0.9-0.2-0.5 0-1 0.2-0.5 0.2-0.8 0.5l-1.2 1.2q-0.4 0.4-0.7 0.9-0.2 0.6-0.3 1.2 0 0.6 0.1 1.2 0.1 0.6 0.5 1.1 1.3 1.9 2.8 3.7 1.4 1.8 3.1 3.5 1.6 1.7 3.5 3.1 1.8 1.5 3.7 2.8 0.5 0.3 1.1 0.5 0.6 0.1 1.2 0.1 0.6-0.1 1.1-0.3 0.6-0.3 1-0.7l1.2-1.2q0.3-0.3 0.5-0.8 0.2-0.5 0.2-1 0-0.5-0.2-0.9-0.2-0.5-0.5-0.8z"/>
	<path id="Layer" class="s0" d="m11.5 0q-0.4 0-0.7 0.3-0.3 0.3-0.3 0.7 0 0.4 0.3 0.7 0.3 0.3 0.7 0.3c1.4 0 2.7 0.3 4 0.8 1.3 0.5 2.4 1.3 3.4 2.3 1 1 1.8 2.1 2.3 3.4 0.5 1.3 0.8 2.6 0.8 4q0 0.4 0.3 0.7 0.3 0.3 0.7 0.3 0.4 0 0.7-0.3 0.3-0.3 0.3-0.7c0-1.6-0.3-3.3-1-4.8-0.6-1.5-1.5-2.9-2.7-4-1.1-1.2-2.5-2.1-4-2.7-1.5-0.7-3.2-1-4.8-1z"/>
	<path id="Layer" class="s0" d="m11.5 6q1.3 0 2.5 0.5 1.2 0.5 2.1 1.4 0.9 0.9 1.4 2.1 0.5 1.2 0.5 2.5 0 0.4 0.3 0.7 0.3 0.3 0.7 0.3 0.4 0 0.7-0.3 0.3-0.3 0.3-0.7c0-1.1-0.2-2.2-0.6-3.3-0.5-1-1.1-1.9-1.9-2.7-0.8-0.8-1.7-1.4-2.7-1.9-1.1-0.4-2.2-0.6-3.3-0.6q-0.4 0-0.7 0.3-0.3 0.3-0.3 0.7 0 0.4 0.3 0.7 0.3 0.3 0.7 0.3z"/>
	<path id="Layer" class="s0" d="m11.5 10q0.5 0 1 0.2 0.4 0.2 0.8 0.5 0.3 0.4 0.5 0.8 0.2 0.5 0.2 1 0 0.4 0.3 0.7 0.3 0.3 0.7 0.3 0.4 0 0.7-0.3 0.3-0.3 0.3-0.7 0-0.9-0.3-1.7-0.4-0.8-1-1.5-0.7-0.6-1.5-1-0.8-0.3-1.7-0.3-0.4 0-0.7 0.3-0.3 0.3-0.3 0.7 0 0.4 0.3 0.7 0.3 0.3 0.7 0.3z"/>
</svg>