<svg version="1.2" xmlns="http://www.w3.org/2000/svg" viewBox="0 0 512 512" width="24" height="24">
	<title>instagram-svg</title>
	<style>
		.s0 { fill: #ffffff } 
	</style>
	<path id="Layer" fill-rule="evenodd" class="s0" d="m333.8 151.3c6 2.5 11.5 6.2 16.1 10.8 4.6 4.6 8.3 10.1 10.8 16.1 2.5 6 3.8 12.5 3.8 19v117.6c0 6.5-1.3 13-3.8 19-2.5 6-6.2 11.5-10.8 16.1-4.6 4.6-10.1 8.3-16.1 10.8-6 2.5-12.5 3.8-19 3.8h-117.6c-6.5 0-13-1.3-19-3.8-6-2.5-11.5-6.2-16.1-10.8-4.6-4.6-8.3-10.1-10.8-16.1-2.5-6-3.8-12.5-3.8-19v-117.6c0-6.5 1.3-13 3.8-19 2.5-6 6.2-11.5 10.8-16.1 4.6-4.6 10.1-8.3 16.1-10.8 6-2.5 12.5-3.8 19-3.8h117.6c6.5 0 13 1.3 19 3.8zm-51.6 167.9c8.3-3.5 15.8-8.5 22.2-14.8 6.3-6.4 11.3-13.9 14.8-22.2 3.4-8.3 5.2-17.2 5.2-26.2 0-27.7-16.7-52.6-42.2-63.2-25.6-10.6-55-4.7-74.6 14.8-19.5 19.6-25.4 49-14.8 74.6 10.6 25.5 35.5 42.2 63.2 42.2 9 0 17.9-1.8 26.2-5.2zm51.3-118.9c1.9-0.8 3.7-2 5.2-3.5 1.6-1.5 2.8-3.3 3.6-5.3 0.8-1.9 1.2-4.1 1.2-6.2 0-6.6-4-12.5-10-15-6.1-2.5-13.1-1.1-17.8 3.5-4.6 4.7-6 11.7-3.5 17.7 2.5 6.1 8.5 10.1 15 10.1 2.2 0 4.3-0.4 6.3-1.3z"/>
	<path id="Layer" class="s0" d="m256 211.5c-18 0-34.2 10.9-41.1 27.5-6.9 16.6-3 35.7 9.7 48.4 12.7 12.7 31.8 16.6 48.4 9.7 16.6-6.9 27.5-23.1 27.5-41.1 0-5.8-1.2-11.6-3.4-17-2.3-5.4-5.5-10.3-9.7-14.4-4.1-4.2-9-7.4-14.4-9.7-5.4-2.2-11.2-3.4-17-3.4z"/>
	<path id="Layer" fill-rule="evenodd" class="s0" d="m512 256c0 141.4-114.6 256-256 256-141.4 0-256-114.6-256-256 0-141.4 114.6-256 256-256 141.4 0 256 114.6 256 256zm-122.7-56.5c0-10.1-2-20.1-5.8-29.4-3.9-9.3-9.5-17.8-16.7-24.9-7.1-7.2-15.6-12.8-24.9-16.7-9.3-3.8-19.3-5.8-29.4-5.8h-113c-10.1 0-20.1 2-29.4 5.8-9.3 3.9-17.8 9.5-24.9 16.7-7.2 7.1-12.8 15.6-16.7 24.9-3.8 9.3-5.8 19.3-5.8 29.4v113c0 10.1 2 20.1 5.8 29.4 3.9 9.3 9.5 17.8 16.7 24.9 7.1 7.2 15.6 12.8 24.9 16.7 9.3 3.8 19.3 5.8 29.4 5.8h113c10.1 0 20.1-2 29.4-5.8 9.3-3.9 17.8-9.5 24.9-16.7 7.2-7.1 12.8-15.6 16.7-24.9 3.8-9.3 5.8-19.3 5.8-29.4z"/>
</svg>