<svg version="1.2" xmlns="http://www.w3.org/2000/svg" viewBox="0 0 48 48" width="24" height="24">
	<title>twitter-svg</title>
	<style>
		.s0 { fill: #1cb7eb } 
		.s1 { fill: #ffffff } 
	</style>
	<path id="Layer" class="s0" d="m24 48c-13.3 0-24-10.7-24-24 0-13.3 10.7-24 24-24 13.3 0 24 10.7 24 24 0 13.3-10.7 24-24 24z"/>
	<g id="Layer">
		<g id="Layer">
			<path id="Layer" class="s1" d="m36.8 15.4c-0.9 0.5-2 0.8-3 0.9 1.1-0.7 1.9-1.8 2.3-3.1-1 0.6-2.1 1.1-3.4 1.4-1-1.1-2.3-1.8-3.8-1.8-2.9 0-5.3 2.5-5.3 5.7 0 0.4 0 0.9 0.1 1.3-4.4-0.2-8.3-2.5-10.9-5.9-0.5 0.8-0.7 1.8-0.7 2.9 0 2 0.9 3.7 2.3 4.7-0.9 0-1.7-0.3-2.4-0.7v0.1c0 2.7 1.8 5 4.2 5.6-0.4 0.1-0.9 0.2-1.4 0.2-0.3 0-0.7 0-1-0.1 0.7 2.3 2.6 3.9 4.9 3.9-1.8 1.5-4.1 2.4-6.5 2.4-0.4 0-0.8 0-1.3-0.1 2.3 1.6 5.1 2.6 8.1 2.6 9.7 0 15-8.6 15-16.1 0-0.2 0-0.5 0-0.7 1.2-1 2.1-2 2.8-3.2z"/>
		</g>
	</g>
</svg>