<svg version="1.2" xmlns="http://www.w3.org/2000/svg" viewBox="0 0 1000 1000" width="24" height="24">
	<title>youtube-svg</title>
	<style>
		.s0 { fill: #ff0000 } 
		.s1 { fill: #ffffff } 
	</style>
	<g id="Layer">
		<path id="Layer" class="s0" d="m500 1000c-276.1 0-500-223.9-500-500 0-276.1 223.9-500 500-500 276.1 0 500 223.9 500 500 0 276.1-223.9 500-500 500z"/>
		<path id="Layer" fill-rule="evenodd" class="s1" d="m832 500c0 0 0 108.8-13.9 160.9-7.6 28.8-30.1 51.4-58.7 59.1-51.7 14-259.4 14-259.4 14 0 0-207.6 0-259.4-14-28.6-7.7-51.1-30.3-58.7-59.1-13.9-52.1-13.9-160.9-13.9-160.9 0 0 0-108.8 14-160.9 7.6-28.8 30.1-51.4 58.7-59.1 51.7-14 259.4-14 259.4-14 0 0 207.6 0 259.4 14 28.6 7.7 51.1 30.3 58.7 59.1 13.8 52.1 13.8 160.9 13.8 160.9zm-226.4 0l-173.5-98.7v197.4z"/>
	</g>
</svg>